<?xml version="1.0" encoding="iso-8859-1"?>
<!-- Generator: Adobe Illustrator 18.1.1, SVG Export Plug-In . SVG Version: 6.00 Build 0)  -->
<svg version="1.1" id="Layer_1" xmlns="http://www.w3.org/2000/svg" xmlns:xlink="http://www.w3.org/1999/xlink" x="0px" y="0px"
	 viewBox="0 0 16 16" style="enable-background:new 0 0 16 16;" xml:space="preserve">
<g>
	<path style="fill:#FFFFFF;" d="M13.441,13.429h-2.253V9.903c0-0.842-0.016-1.924-1.172-1.924c-1.174,0-1.353,0.916-1.353,1.862
		v3.588H6.41V6.177h2.162v0.991h0.031c0.301-0.571,1.037-1.171,2.134-1.171c2.282,0,2.704,1.501,2.704,3.455V13.429L13.441,13.429z
		 M3.867,5.185c-0.724,0-1.308-0.586-1.308-1.307c0-0.721,0.584-1.307,1.308-1.307c0.722,0,1.307,0.586,1.307,1.307
		C5.174,4.599,4.589,5.185,3.867,5.185L3.867,5.185z M4.995,13.429H2.738V6.177h2.257V13.429L4.995,13.429z M13.964,0H2.036
		C0.912,0,0,0.912,0,2.036v11.928C0,15.088,0.912,16,2.036,16h11.928C15.088,16,16,15.088,16,13.964V2.036
		C16,0.912,15.088,0,13.964,0L13.964,0z"/>
</g>
</svg>
