<?xml version="1.0" encoding="iso-8859-1"?>
<!-- Generator: Adobe Illustrator 18.1.1, SVG Export Plug-In . SVG Version: 6.00 Build 0)  -->
<svg version="1.1" id="Layer_1" xmlns="http://www.w3.org/2000/svg" xmlns:xlink="http://www.w3.org/1999/xlink" x="0px" y="0px"
	 viewBox="0 0 16 16" style="enable-background:new 0 0 16 16;" xml:space="preserve">
<path style="fill:#FFFFFF;" d="M12.556,5.534c-0.243,0.353-0.536,0.657-0.881,0.911c-0.023,0.017-0.031,0.033-0.03,0.062
	c0.006,0.184,0.005,0.368-0.008,0.552c-0.021,0.298-0.066,0.593-0.137,0.884c-0.194,0.797-0.541,1.522-1.051,2.165
	c-0.63,0.794-1.423,1.359-2.385,1.683c-0.292,0.098-0.591,0.168-0.895,0.214c-0.354,0.054-0.711,0.075-1.068,0.061
	c-0.956-0.036-1.84-0.308-2.652-0.813c-0.009-0.006-0.017-0.012-0.03-0.021c0.019-0.008,0.035-0.003,0.051-0.002
	c0.147,0.015,0.295,0.023,0.443,0.019c0.832-0.018,1.58-0.276,2.244-0.778c0.006-0.005,0.013-0.011,0.019-0.016
	c0.001-0.002,0.002-0.004,0.003-0.009c-0.553-0.026-1.016-0.242-1.382-0.659C4.636,9.602,4.453,9.268,4.438,9.138
	c0.28,0.051,0.556,0.042,0.829-0.033c-0.52-0.123-0.928-0.404-1.213-0.857C3.861,7.941,3.771,7.603,3.772,7.234
	c0.265,0.144,0.543,0.223,0.845,0.235c-0.544-0.398-0.83-0.925-0.828-1.598c0-0.325,0.088-0.628,0.253-0.914
	c0.681,0.82,1.522,1.398,2.534,1.723C7.013,6.82,7.461,6.9,7.923,6.922c-0.006-0.029-0.011-0.054-0.015-0.08
	C7.811,6.275,7.935,5.761,8.295,5.311c0.292-0.364,0.672-0.592,1.132-0.669c0.639-0.107,1.196,0.07,1.663,0.521
	c0.033,0.031,0.059,0.041,0.105,0.031c0.389-0.085,0.757-0.227,1.102-0.426c0.008-0.005,0.016-0.009,0.025-0.013
	c-0.143,0.441-0.413,0.779-0.8,1.029c0.183-0.018,0.361-0.055,0.537-0.103c0.175-0.048,0.346-0.109,0.516-0.178
	C12.569,5.514,12.563,5.524,12.556,5.534 M16,2.043C16,0.915,15.086,0,13.957,0H2.043C0.914,0,0,0.915,0,2.043v11.915
	C0,15.086,0.914,16,2.043,16h11.914C15.086,16,16,15.086,16,13.958V2.043z"/>
</svg>
