<?xml version="1.0" encoding="iso-8859-1"?>
<!-- Generator: Adobe Illustrator 19.1.0, SVG Export Plug-In . SVG Version: 6.00 Build 0)  -->
<svg version="1.1" xmlns="http://www.w3.org/2000/svg" xmlns:xlink="http://www.w3.org/1999/xlink" x="0px" y="0px"
	 viewBox="0 0 46.736 46.736" style="enable-background:new 0 0 46.736 46.736;" xml:space="preserve">
<g id="Background">
</g>
<g id="Content">
	<g style="opacity:0.4;">
		<path style="fill:#DAD8D6;" d="M23.402,43.368c11.05,0,20-8.95,20-20s-8.95-20-20-20s-20,8.95-20,20S12.352,43.368,23.402,43.368z
			 M25.122,13.238c0.32-0.32,0.73-0.47,1.15-0.47c0.41,0,0.82,0.15,1.14,0.47c0.63,0.63,0.63,1.65,0,2.29l-7.82,7.81l7.82,7.82
			c0.63,0.63,0.63,1.65,0,2.29c-0.63,0.63-1.65,0.63-2.29,0l-10.1-10.11L25.122,13.238z"/>
	</g>
</g>
<g id="Nav">
</g>
<g id="Menu">
</g>
<g id="Grid" style="display:none;">
</g>
<g id="Boxes_around_artboards">
</g>
</svg>
