<?xml version="1.0" encoding="iso-8859-1"?>
<!-- Generator: Adobe Illustrator 19.1.0, SVG Export Plug-In . SVG Version: 6.00 Build 0)  -->
<svg version="1.1" xmlns="http://www.w3.org/2000/svg" xmlns:xlink="http://www.w3.org/1999/xlink" x="0px" y="0px"
	 viewBox="0 0 46.736 46.736" style="enable-background:new 0 0 46.736 46.736;" xml:space="preserve">
<g id="Background">
</g>
<g id="Content">
	<g>
		<path style="fill:#E87722;" d="M3.368,23.368c0,11.05,8.95,20,20,20s20-8.95,20-20s-8.95-20-20-20S3.368,12.318,3.368,23.368z
			 M33.498,25.088c0.32,0.32,0.47,0.73,0.47,1.15c0,0.41-0.15,0.82-0.47,1.14c-0.63,0.63-1.65,0.63-2.29,0l-7.81-7.82l-7.82,7.82
			c-0.63,0.63-1.65,0.63-2.29,0c-0.63-0.63-0.63-1.65,0-2.29l10.11-10.1L33.498,25.088z"/>
	</g>
</g>
<g id="Nav">
</g>
<g id="Menu">
</g>
<g id="Grid" style="display:none;">
</g>
<g id="Boxes_around_artboards">
</g>
</svg>
