<?xml version="1.0" encoding="iso-8859-1"?>
<!-- Generator: Adobe Illustrator 18.1.1, SVG Export Plug-In . SVG Version: 6.00 Build 0)  -->
<svg version="1.1" id="Layer_1" xmlns="http://www.w3.org/2000/svg" xmlns:xlink="http://www.w3.org/1999/xlink" x="0px" y="0px"
	 viewBox="0 0 139 24" style="enable-background:new 0 0 139 24;" xml:space="preserve">
<g>
	<g>
		<path style="fill:#888B8D;" d="M5.273,9.892L5.158,9.841C3.819,9.247,2.554,8.686,2.554,7.243c0-1.364,0.926-2.146,2.54-2.146
			c0.734,0,1.55,0.124,1.997,0.25l0.387,1.985C7.499,7.442,7.55,7.587,7.741,7.587h0.419c0.161,0,0.266-0.104,0.266-0.268
			l-0.131-2.75c0-0.097-0.041-0.213-0.239-0.213H7.479c-0.174,0-0.38-0.045-0.641-0.101C6.426,4.164,5.86,4.041,5.093,4.041
			c-2.432,0-3.884,1.207-3.884,3.228c0,2.284,1.728,3.025,3.4,3.741l0.016,0.007c1.452,0.622,2.824,1.21,2.824,2.806
			c0,1.655-0.986,2.566-2.776,2.566c-0.948,0-1.775-0.204-2.311-0.38l-0.414-2.197c-0.026-0.129-0.06-0.228-0.238-0.228H1.239
			C1.078,13.584,1,13.663,1,13.826l0.131,3.013c0,0.234,0.227,0.266,0.449,0.266h0.446c0.345,0,0.707,0.061,1.091,0.126
			c0.45,0.076,0.96,0.162,1.531,0.162c2.596,0,4.146-1.354,4.146-3.621C8.793,11.432,6.929,10.617,5.273,9.892z"/>
		<path style="fill:#888B8D;" d="M18.039,15.345c-0.043-0.086-0.163-0.116-0.268-0.045c-0.75,0.583-1.271,0.879-2.037,0.879
			c-0.853,0-1.832-0.238-1.832-2.094V5.411h3.72c0.15,0,0.239-0.09,0.239-0.239V4.595c0-0.136-0.103-0.239-0.239-0.239h-3.667V1.029
			c0-0.141-0.084-0.292-0.318-0.292H13.06c-0.231,0-0.291,0.15-0.318,0.289L12.585,4.28c0,0.022-0.029,0.075-0.075,0.075h-1.888
			c-0.136,0-0.239,0.103-0.239,0.239v0.577c0,0.15,0.089,0.239,0.239,0.239h1.963v8.701c0,2.854,1.776,3.28,2.835,3.28
			c0.979,0,1.914-0.337,2.941-1.058c0.129-0.086,0.091-0.19,0.045-0.282L18.039,15.345z"/>
		<path style="fill:#888B8D;" d="M28.841,4.175c-0.257-0.058-0.649-0.135-1.087-0.135c-1.213,0-3.35,0.325-4.202,2.477
			c0.046-0.441,0.062-0.935,0.062-1.247v-0.64c0-0.276-0.19-0.376-0.321-0.376h0l-2.933,0.16c-0.136,0-0.239,0.105-0.239,0.243
			v0.453c0,0.152,0.089,0.243,0.234,0.243h0l1.807,0.16c0.179,0.023,0.213,0.101,0.213,0.237v10.213
			c0,0.136-0.034,0.214-0.215,0.237l-1.657,0.268c-0.095,0.024-0.226,0.057-0.226,0.242v0.373c0,0.139,0.103,0.243,0.239,0.243
			h5.768c0.136,0,0.239-0.105,0.239-0.243V16.71c0-0.152-0.089-0.243-0.232-0.243h-0.001l-2.385-0.266
			c-0.179-0.023-0.213-0.101-0.213-0.237v-6.64c0-2.646,1.53-4.229,4.094-4.236l0.073,0.056l0.442,2.168
			c0.026,0.107,0.062,0.203,0.211,0.203h0.577c0.097,0,0.213-0.042,0.213-0.246l-0.131-2.744
			C29.173,4.337,29.077,4.236,28.841,4.175z"/>
		<path style="fill:#888B8D;" d="M35.857,4.041c-3.377,0-5.09,2.259-5.09,6.715c0,4.563,1.617,6.688,5.09,6.688
			c3.49,0,5.116-2.125,5.116-6.688C40.973,6.3,39.252,4.041,35.857,4.041z M39.577,10.755c0,3.929-1.147,5.682-3.72,5.682
			c-2.52,0-3.693-1.805-3.693-5.682c0-3.929,1.139-5.681,3.693-5.681C38.43,5.074,39.577,6.826,39.577,10.755z"/>
		<path style="fill:#888B8D;" d="M55.112,16.505l-1.653-0.268c-0.179-0.023-0.214-0.102-0.214-0.239V7.761
			c0-3.074-1.998-3.72-3.674-3.72c-2.085,0-3.356,1.165-4.061,2.158V4.631c0-0.276-0.19-0.376-0.321-0.376h0l-2.907,0.16
			c-0.136,0-0.239,0.104-0.239,0.243v0.455c0,0.152,0.089,0.243,0.234,0.243h0l1.807,0.16c0.179,0.023,0.214,0.105,0.214,0.239
			v10.243c0,0.134-0.035,0.216-0.215,0.239l-1.657,0.268C42.33,16.53,42.2,16.563,42.2,16.747v0.375
			c0,0.139,0.103,0.243,0.239,0.243h4.929c0.136,0,0.239-0.104,0.239-0.243v-0.375c0-0.184-0.13-0.217-0.23-0.242l-1.549-0.268
			c-0.178-0.023-0.213-0.105-0.213-0.239V7.643c0.966-1.59,2.378-2.501,3.877-2.501c1.639,0,2.435,0.874,2.435,2.673v8.184
			c0,0.134-0.035,0.216-0.216,0.239l-1.525,0.268c-0.095,0.024-0.226,0.057-0.226,0.241v0.375c0,0.139,0.103,0.243,0.239,0.243
			h4.903c0.136,0,0.239-0.104,0.239-0.243v-0.375C55.342,16.563,55.212,16.53,55.112,16.505z"/>
	</g>
	<path style="fill:#888B8D;" d="M78.237,6.702c-0.712-1.189-1.575-1.509-2.502-1.509c-1.402,0-2.092,1-2.092,1.924
		c0,3.226,6.579,2.189,6.579,6.547c0,2.377-1.877,3.868-4.314,3.868c-2.524,0-4.12-1.509-4.616-3.566l1.23-0.642
		c0.496,1.566,1.294,3.038,3.386,3.038c1.618,0,2.826-0.887,2.826-2.66c0-3.283-6.514-2.453-6.514-6.434
		c0-1.962,1.618-3.245,3.516-3.245c2.2,0,2.955,0.906,3.667,2.038L78.237,6.702z"/>
	<path style="fill:#888B8D;" d="M81.201,4.081h10.146v1.176h-4.381v12.105h-1.384V5.257h-4.381V4.081z"/>
	<path style="fill:#888B8D;" d="M93.661,4.044h1.383v9.183c0,1.657,1.195,3.124,3.648,3.124c2.453,0,3.648-1.467,3.648-3.124V4.044
		h1.384v9.068c0,2.934-2.369,4.42-5.031,4.42c-2.662,0-5.031-1.486-5.031-4.42V4.044z"/>
	<path style="fill:#888B8D;" d="M110.998,4.099c3.773,0,6.666,2.475,6.666,6.613c0,4.138-2.893,6.613-6.666,6.613h-3.857V4.099
		H110.998z M108.525,5.271v10.883h2.494c2.704,0,5.199-1.644,5.199-5.441c0-3.798-2.494-5.441-5.199-5.441H108.525z"/>
	<path style="fill:#888B8D;" d="M121.921,17.325h-1.384V4.081h1.384V17.325z"/>
	<path style="fill:#888B8D;" d="M138,10.777c0,4.189-2.998,6.754-6.436,6.754c-3.438,0-6.436-2.566-6.436-6.754
		c0-4.188,2.998-6.754,6.436-6.754C135.002,4.023,138,6.589,138,10.777z M126.575,10.777c0,3.698,2.243,5.585,4.989,5.585
		c2.746,0,4.989-1.887,4.989-5.585c0-3.698-2.243-5.585-4.989-5.585C128.818,5.192,126.575,7.079,126.575,10.777z"/>
	<g>
		<path style="fill:#888B8D;" d="M66.24,18.162c0,3.964-2.246,5.101-5.18,5.101c-1.11,0-2.379-0.185-3.066-0.185h-0.687
			c-0.132,0-0.211-0.106-0.211-0.185l-0.132-3.119c0-0.132,0.053-0.211,0.159-0.211h0.529c0.106,0,0.159,0.079,0.185,0.211
			l0.397,2.246c0.476,0.132,1.691,0.317,2.828,0.317c1.903,0,3.964-0.449,3.964-4.334c0-1.11-0.026-2.22-0.053-3.33h-0.053
			c-0.819,1.718-2.141,2.749-3.912,2.749c-2.854,0-4.599-1.956-4.599-6.528c0-4.229,1.559-6.792,4.942-6.792
			c1.982,0,3.119,0.846,3.726,1.85h0.053l0.238-1.506c0.026-0.159,0.106-0.211,0.238-0.185l0.872,0.211
			c0.106,0.026,0.106,0.106,0.079,0.211c-0.132,0.661-0.449,2.696-0.449,5.18C66.108,13.061,66.24,15.44,66.24,18.162z
			 M61.139,16.55c2.088,0,3.885-2.088,3.885-6.739c0-3.568-1.295-4.784-3.621-4.784c-2.352,0-3.7,1.348-3.7,6.052
			C57.704,16.365,59.95,16.55,61.139,16.55z"/>
	</g>
</g>
</svg>
