<?xml version="1.0" encoding="iso-8859-1"?>
<!-- Generator: Adobe Illustrator 18.1.1, SVG Export Plug-In . SVG Version: 6.00 Build 0)  -->
<svg version="1.1" id="Layer_1" xmlns="http://www.w3.org/2000/svg" xmlns:xlink="http://www.w3.org/1999/xlink" x="0px" y="0px"
	 viewBox="0 0 1024.388 616.102" style="enable-background:new 0 0 1024.388 616.102;" xml:space="preserve">
<g>
	<g>
		<g>
			<g>
				<path style="fill:#6AA2B8;" d="M865.196,174.188l-300.1-41.58l3.627-28.108c20.581,2.844,39.49-12.107,42.238-33.4
					c2.748-21.298-11.713-40.875-32.299-43.728c-5.779-0.801-11.426-0.198-16.621,1.554c-4.46-14.805-16.856-26.365-32.69-28.559
					c-15.86-2.197-30.774,5.611-38.822,18.721c-4.597-3.152-9.936-5.305-15.769-6.113c-20.587-2.852-39.504,12.101-42.252,33.398
					c-2.748,21.298,11.713,40.875,32.299,43.728c0.005,0.001,0.011,0.001,0.016,0.002l-3.627,28.108L161.154,76.64
					c-7.385-1.023-14.171,4.352-15.159,12.006s4.198,14.688,11.583,15.711l126.22,17.488L419.425,223.99
					c-0.651,2.798-1.17,5.657-1.546,8.572c-1.538,11.922-0.558,23.6,2.506,34.463l-19.437,18.494
					c0.773-6.592-3.707-12.62-10.075-13.503c-6.416-0.889-12.313,3.782-13.171,10.431l-5.016,38.874
					c-0.858,6.65,3.647,12.761,10.064,13.65s12.313-3.782,13.171-10.431l1.192-9.238l31.055-29.547
					c12.139,21.549,33.388,37.297,59.045,40.852c25.657,3.555,50.153-5.855,67.328-23.342l22.473,36.963l-1.192,9.238
					c-0.858,6.65,3.648,12.761,10.063,13.65c6.416,0.889,12.313-3.782,13.171-10.431l5.016-38.874
					c0.858-6.65-3.648-12.761-10.064-13.65c-6.367-0.882-12.218,3.714-13.145,10.284l-14.065-23.135
					c5.711-9.647,9.618-20.648,11.156-32.57c0.376-2.914,0.6-5.814,0.682-8.691l156.761-61.634l126.221,17.488
					c7.384,1.023,14.171-4.352,15.159-12.006C877.766,182.245,872.58,175.211,865.196,174.188z M322.524,127.211l124.778,17.289
					c0.794,12.417-2.652,30.913-8.464,42.145c-4.983,5.532-9.262,11.786-12.674,18.621L322.524,127.211z M576.884,226.148
					c-1.559-7.524-4.102-14.723-7.507-21.416c-2.761-12.419-1.396-31.205,2.519-42.97l124.777,17.288L576.884,226.148z"/>
			</g>
		</g>
		<path style="fill:#FFFFFF;" d="M489.675,307.524c-33.98-4.708-57.928-37.191-53.384-72.411
			c4.545-35.22,35.887-60.042,69.868-55.334c33.981,4.708,57.928,37.191,53.384,72.411S523.656,312.232,489.675,307.524z"/>
		<g>
			<path style="fill:#6AA2B8;" d="M490.867,298.289c-29.068-4.027-49.554-31.814-45.666-61.942s30.699-51.361,59.767-47.333
				s49.553,31.814,45.665,61.942S519.935,302.317,490.867,298.289z"/>
		</g>
		<path style="fill:#FFFFFF;" d="M518.796,154.405l34.47,4.776c-1.777,6.316-2.942,13.312-3.51,20.33
			c-9.125-7.947-20.026-13.876-32.136-17.023c0.144-0.492,0.262-0.998,0.33-1.524L518.796,154.405z"/>
		<path style="fill:#FFFFFF;" d="M500.383,151.854l-0.846,6.558c-0.068,0.527-0.082,1.048-0.068,1.563
			c-12.477-0.257-24.492,2.495-35.306,7.677c1.232-6.926,1.882-13.993,1.768-20.571L500.383,151.854z"/>
		<path style="fill:#FFFFFF;" d="M500.864,220.82c-12.147-1.683-23.351,7.191-24.976,19.78
			c-1.625,12.589,6.936,24.201,19.083,25.884c12.146,1.683,23.351-7.191,24.975-19.78
			C521.571,234.115,513.01,222.503,500.864,220.82z"/>
	</g>
	<g>
		<g>
			<path style="fill:#EBAB21;" d="M0,431.238c0-8.767,4.583-11.529,11.574-11.529h30.262c16.636,0,30.021,8.167,30.021,27.383
				c0,15.727-10.972,27.383-30.139,27.383H19.773v23.413c0,5.887-3.858,9.848-9.887,9.848S0,503.775,0,497.888L0,431.238z
				 M19.773,459.339H38.22c7.958,0,13.864-4.806,13.864-12.247c0-8.649-6.148-12.255-15.915-12.255H19.773V459.339z"/>
			<path style="fill:#EBAB21;" d="M91.553,427.995c0-5.887,3.858-9.848,9.887-9.848c6.029,0,9.887,3.961,9.887,9.848v69.893
				c0,5.887-3.858,9.848-9.887,9.848c-6.029,0-9.887-3.961-9.887-9.848V427.995z"/>
			<path style="fill:#EBAB21;" d="M138.33,431.238c0-8.767,4.583-11.529,11.574-11.529h46.415c5.787,0,10.01,1.681,10.01,7.923
				c0,6.25-4.222,7.931-10.01,7.931h-38.216v18.734h33.514c5.185,0,9.285,1.436,9.285,7.568c0,6.124-4.1,7.56-9.285,7.56h-33.514
				v20.896h39.182c5.787,0,10.006,1.681,10.006,7.931c0,6.242-4.218,7.923-10.006,7.923h-47.382
				c-6.991,0-11.574-2.762-11.574-11.529V431.238z"/>
			<path style="fill:#EBAB21;" d="M270.604,427.995c0-5.887,3.858-9.848,9.887-9.848s9.887,3.961,9.887,9.848v69.893
				c0,5.887-3.858,9.848-9.887,9.848s-9.887-3.961-9.887-9.848V427.995z"/>
			<path style="fill:#EBAB21;" d="M318.007,429.676c0-8.167,3.977-11.529,12.418-11.529c4.1,0,7.716,1.562,9.887,5.161l34.6,55.61
				h0.242v-51.285c0-6.36,3.616-9.485,9.526-9.485c5.906,0,9.522,3.125,9.522,9.485v67.857c0,7.804-3.375,12.247-11.693,12.247
				c-6.27,0-8.318-1.318-10.849-5.287l-34.362-54.04h-0.242v49.841c0,6.36-3.616,9.485-9.526,9.485
				c-5.906,0-9.522-3.125-9.522-9.485V429.676z"/>
			<path style="fill:#EBAB21;" d="M474.845,436.281h-18.688c-5.664,0-10.247-2.88-10.247-8.286c0-5.406,4.583-8.286,10.247-8.286
				h57.15c5.664,0,10.247,2.88,10.247,8.286c0,5.406-4.583,8.286-10.247,8.286h-18.688v61.607c0,5.887-3.858,9.848-9.887,9.848
				s-9.887-3.961-9.887-9.848V436.281z"/>
			<path style="fill:#EBAB21;" d="M538.492,427.995c0-5.887,3.858-9.848,9.891-9.848c6.029,0,9.887,3.961,9.887,9.848v24.495h35.926
				v-24.495c0-5.887,3.858-9.848,9.887-9.848s9.887,3.961,9.887,9.848v69.893c0,5.887-3.858,9.848-9.887,9.848
				s-9.887-3.961-9.887-9.848v-28.819h-35.926v28.819c0,5.887-3.858,9.848-9.887,9.848c-6.033,0-9.891-3.961-9.891-9.848V427.995z"
				/>
			<path style="fill:#EBAB21;" d="M640.952,431.238c0-8.767,4.579-11.529,11.574-11.529h46.415c5.783,0,10.006,1.681,10.006,7.923
				c0,6.25-4.222,7.931-10.006,7.931h-38.216v18.734h33.51c5.189,0,9.285,1.436,9.285,7.568c0,6.124-4.096,7.56-9.285,7.56h-33.51
				v20.896h39.182c5.783,0,10.006,1.681,10.006,7.931c0,6.242-4.222,7.923-10.006,7.923h-47.382
				c-6.995,0-11.574-2.762-11.574-11.529V431.238z"/>
			<path style="fill:#EBAB21;" d="M822.775,456.096c18.086,4.08,22.665,14.772,22.665,24.858c0,15.617-11.812,27.264-35.689,27.264
				c-25.073,0-36.291-12.492-36.291-21.859c0-4.806,3.502-8.167,8.318-8.167c10.734,0,7.962,15.617,27.973,15.617
				c10.251,0,15.915-5.65,15.915-11.411c0-3.48-1.687-7.323-8.437-9.004l-22.308-5.65c-17.959-4.561-21.215-14.409-21.215-23.658
				c0-19.215,17.84-26.42,34.604-26.42c15.432,0,33.637,8.649,33.637,20.178c0,4.924-4.222,7.804-9.047,7.804
				c-9.158,0-7.47-12.847-25.921-12.847c-9.158,0-14.228,4.198-14.228,10.203c0,6.005,7.241,7.931,13.507,9.367L822.775,456.096z"/>
			<path style="fill:#EBAB21;" d="M867.59,427.995c0-5.887,3.858-9.848,9.887-9.848c6.029,0,9.887,3.961,9.887,9.848v28.582
				l31.102-34.106c2.289-2.407,4.341-4.324,7.835-4.324c4.706,0,9.403,2.88,9.403,7.923c0,3.007-1.561,5.05-3.248,6.731
				l-20.257,21.251l23.988,36.395c1.814,2.762,3.739,5.279,3.739,7.804c0,7.323-5.427,9.485-10.124,9.485
				c-3.977,0-6.148-0.963-8.801-5.161l-22.792-35.069l-10.845,10.811v19.57c0,5.887-3.858,9.848-9.887,9.848
				c-6.029,0-9.887-3.961-9.887-9.848V427.995z"/>
			<path style="fill:#EBAB21;" d="M978.694,472.431l-24.234-40.111c-0.959-1.562-1.687-3.362-1.687-5.169
				c0-6.723,6.148-9.004,10.006-9.004c4.706,0,6.876,1.918,8.928,5.761l17.238,31.589l17.12-31.589
				c2.289-4.317,4.46-5.761,8.556-5.761c3.62,0,9.768,2.281,9.768,9.004c0,1.807-0.721,3.606-1.687,5.169l-24.234,40.111v25.457
				c0,5.887-3.858,9.848-9.887,9.848c-6.029,0-9.887-3.961-9.887-9.848V472.431z"/>
		</g>
		<g>
			<path style="fill:#EBAB21;" d="M270.241,613.076l0.359-0.179c2.168-1.08,2.564-1.372,2.634-1.436
				c0.026-0.029,0.161-0.207,0.275-0.757c0.155-0.771,0.295-2.481,0.415-5.077c0.121-2.626,0.183-4.646,0.183-6.004v-24.497
				c0-2.616-0.067-5.752-0.202-9.319c-0.138-2.811-0.376-3.661-0.505-3.918c-0.113-0.207-0.286-0.361-0.536-0.468
				c-0.559-0.235-1.945-0.524-5.357-0.557l-0.643-0.007v-3.935l0.688,0.042c0.869,0.053,1.993,0.079,3.342,0.079l8.486,0.205
				l14.96-0.366c4.041,0,7.199,0.425,9.406,1.263c1.573,0.597,4.438,1.938,5.94,4.216c1.274,1.932,1.921,4.111,1.921,6.48
				c0,1.874-0.384,3.662-1.141,5.314c-0.693,1.519-2.043,2.788-3.232,3.908l-0.402,0.381c-1.254,1.195-2.666,2.179-4.198,2.922
				c-0.808,0.392-1.75,0.768-2.819,1.124c1.788,0.262,3.333,0.585,4.614,0.966c2.637,0.785,4.571,1.704,5.75,2.733
				c1.389,1.214,2.454,2.711,3.168,4.448c0.708,1.722,1.067,3.664,1.067,5.773c0,4.141-1.274,7.838-3.786,10.989
				c-2.892,3.624-7.178,5.789-10.264,6.968c-2.912,1.107-6.401,1.669-10.373,1.669l-11.828-0.326
				c-1.239,0.001-3.679,0.109-7.234,0.324l-0.688,0.042V613.076z M283.248,610.681c1.841,0.401,3.789,0.604,5.802,0.604
				c3.468,0,6.292-0.53,8.393-1.577c2.067-1.03,3.68-2.611,4.793-4.701c1.126-2.116,1.696-4.584,1.696-7.335
				c0-2.714-0.533-5.018-1.584-6.847c-1.038-1.803-2.614-3.16-4.685-4.033c-2.124-0.896-5.721-1.35-10.692-1.35
				c-1.009,0-2.297,0.042-3.836,0.126v14.785C283.135,601.763,283.172,605.145,283.248,610.681z M283.135,581.002
				c1.277,0.061,2.429,0.09,3.429,0.09c3.298,0,5.866-0.251,7.633-0.748c1.737-0.487,3.09-1.129,4.02-1.907
				c0.927-0.774,1.713-1.849,2.336-3.193s0.938-2.951,0.938-4.773c0-3.195-0.969-5.424-2.963-6.812
				c-2.041-1.422-5.105-2.143-9.11-2.143c-2.081,0-4.086,0.183-5.967,0.544c-0.21,2.214-0.315,5.539-0.315,9.896V581.002z"/>
			<path style="fill:#EBAB21;" d="M343.803,611.985l0.641-0.009c2.723-0.033,3.577-0.164,3.845-0.24
				c0.425-0.119,0.828-0.355,1.199-0.703c0.218-0.204,0.741-0.876,1.795-3.082c0.477-0.979,2.158-4.608,5.292-11.425l10.183-22.94
				c1.114-2.524,3.512-8.188,7.125-16.833l0.166-0.398h3.463l17.567,41.205c2.804,6.568,4.687,10.738,5.595,12.394
				c0.45,0.827,0.924,1.365,1.407,1.601c0.294,0.145,1.186,0.391,3.859,0.423l0.641,0.009v4.097l-0.689-0.044
				c-4.221-0.27-7.195-0.405-8.843-0.405l-13.762,0.427v-4.071l0.637-0.011c3.714-0.066,4.993-0.185,5.413-0.272
				c0.713-0.148,0.924-0.334,0.972-0.387c0.125-0.139,0.182-0.305,0.182-0.524c0-0.51-0.176-1.209-0.523-2.079l-4.835-12.043
				h-22.696l-4.251,10.061c-0.936,2.218-1.132,3.322-1.132,3.857c0,0.29,0.092,0.426,0.16,0.502c0.216,0.256,0.562,0.43,1.041,0.534
				c0.96,0.207,2.696,0.325,5.158,0.351l0.642,0.007v4.092l-0.683-0.036c-4.553-0.243-8.008-0.365-10.271-0.365
				c-2.609,0-5.502,0.122-8.598,0.364l-0.699,0.054V611.985z M382.948,591.916l-9.168-22.162l-9.396,22.162H382.948z"/>
			<path style="fill:#EBAB21;" d="M497.197,616.038c-2.707-0.109-4.442-0.162-5.305-0.162c-0.967,0-3.036,0.053-6.326,0.162
				l-0.281,0.01l-0.198-0.199c-0.604-0.604-2.76-2.682-6.786-6.541l-4.191-4.029l-18.119-17.002l-0.191,0.109v7.515
				c0,3.672,0.067,7.291,0.202,10.758c0.073,3.432,0.36,4.14,0.446,4.275c0.229,0.361,0.612,0.626,1.173,0.811
				c0.438,0.144,1.773,0.329,5.639,0.395l0.638,0.011v3.904l-12.951-0.301c-0.804,0.001-4.564,0.094-11.482,0.285l-0.666,0.019
				v-3.907l0.638-0.011c3.864-0.065,5.198-0.251,5.637-0.395c0.557-0.183,0.934-0.417,1.121-0.699
				c0.104-0.175,0.396-0.934,0.498-3.609c0.02-0.343,0.072-2.277,0.204-11.53l-0.001-18.816c0-3.607-0.041-7.24-0.121-10.8
				c-0.109-3.409-0.398-4.102-0.484-4.232c-0.231-0.353-0.613-0.613-1.169-0.798c-0.429-0.144-1.764-0.328-5.685-0.395l-0.638-0.011
				v-3.913l0.672,0.024c5.221,0.188,9.278,0.284,12.061,0.284c2.754,0,6.688-0.096,11.694-0.284l0.673-0.025v3.914l-0.638,0.011
				c-3.869,0.067-5.202,0.252-5.639,0.395c-0.537,0.176-0.904,0.408-1.062,0.672c-0.142,0.219-0.453,0.971-0.557,3.633
				c0.001,0.534-0.067,4.42-0.203,11.524l0.001,7.203c1.199-0.801,2.575-1.964,4.104-3.473l5.129-5.03l9.065-9.184
				c3.275-3.318,5.387-5.543,6.282-6.619v-3.043l0.67,0.022c3.188,0.107,5.74,0.162,7.588,0.162c1.974,0,4.112-0.054,6.356-0.162
				l0.68-0.032v3.933h-0.648c-2.513,0-4.214,0.103-5.057,0.307c-0.813,0.198-1.631,0.577-2.429,1.125
				c-1.693,1.244-4.358,3.528-7.905,6.779l-15.719,14.38l23.903,22.388c5.09,4.774,6.322,5.77,6.604,5.938
				c0.25,0.15,0.946,0.406,2.812,0.438l0.638,0.011v3.834L497.197,616.038z"/>
			<path style="fill:#EBAB21;" d="M532.127,612.145l0.643-0.007c3.418-0.031,4.798-0.339,5.354-0.591
				c0.245-0.105,0.398-0.248,0.494-0.455c0.137-0.274,0.373-1.137,0.51-4.023c0.162-3.54,0.243-6.646,0.243-9.232v-20.76
				c0-3.703-0.041-7.333-0.122-10.791c-0.106-3.404-0.396-4.099-0.483-4.23c-0.229-0.347-0.622-0.615-1.168-0.796
				c-0.43-0.144-1.764-0.327-5.687-0.395l-0.638-0.011v-3.903l12.259,0.259l12.264-0.204c5.994-0.082,10.189-0.122,12.828-0.122
				c2.704,0,5.291,0.152,7.688,0.453l0.747,0.093l-0.203,0.725c-0.424,1.509-0.72,2.836-0.878,3.945
				c-0.039,0.217-0.176,1.539-0.728,8.423l-0.048,0.597h-3.815l0.006-0.654c0.025-2.57-0.131-4.956-0.463-7.098
				c-1.345-0.526-2.83-0.89-4.42-1.082c-3.001-0.376-6.041-0.565-9.036-0.565c-0.632,0-2.086,0.054-4.322,0.162
				c-1.826,0.088-3.25,0.168-4.245,0.239c-0.099,2.78-0.173,5.395-0.226,7.845l-0.154,13.077c2.909,0.165,5.629,0.248,8.093,0.248
				c3.193,0,5.943-0.148,8.176-0.442c0.983-0.121,1.201-0.352,1.234-0.396c0.042-0.063,0.276-0.528,0.524-3.013l0.294-3.433h3.685
				v1.423l-0.205,8.479l0.219,10.113h-4.13l-0.15-3.388c-0.068-2.566-0.335-3.248-0.446-3.423c-0.215-0.335-0.674-0.582-1.363-0.732
				c-1.491-0.313-4.472-0.473-8.854-0.473c-1.698,0-4.089,0.06-7.111,0.179c-0.116,2.673-0.175,6.523-0.175,11.46
				c0,4.635,0.059,8.273,0.174,10.83c3.707,0.268,7.91,0.402,12.504,0.402c3.398,0,5.84-0.106,7.258-0.317
				c1.306-0.193,2.531-0.514,3.65-0.952c0.28-0.78,0.566-1.81,0.852-3.066c0.593-2.409,0.985-4.225,1.168-5.408l0.085-0.55h4.02
				l-0.095,0.731c-0.698,5.416-1.052,9.972-1.052,13.54v0.556l-0.55,0.085c-2.353,0.361-5.247,0.545-8.603,0.545l-24.299-0.285
				c-0.427,0-6.274,0.162-10.635,0.284l-0.667,0.019V612.145z"/>
			<path style="fill:#EBAB21;" d="M673.896,616.036c-2.027-0.188-3.817-0.282-5.321-0.282c-1.559,0-3.515,0.095-5.813,0.282
				l-0.326,0.027l-0.215-0.247c-1.774-2.037-4.78-6.061-8.936-11.958c-2.291-3.247-4.342-5.997-6.097-8.176
				c-2.844-3.612-5.582-6.925-8.143-9.853l-0.245-0.279l0.681-2.045l0.496,0.029c1.391,0.08,2.459,0.121,3.176,0.121
				c4.749,0,8.38-1.12,10.793-3.329c2.399-2.194,3.615-5.142,3.615-8.758c0-3.172-1.008-5.616-3.081-7.473
				c-2.063-1.847-5.271-2.783-9.536-2.783c-2.571,0-5.127,0.37-7.604,1.103c-0.092,1.29-0.163,2.505-0.212,3.643
				c-0.019,0.271-0.082,2.525-0.284,11.817l0.001,18.038c0,3.677,0.068,7.293,0.203,10.749c0.07,3.425,0.358,4.136,0.444,4.272
				c0.227,0.355,0.621,0.627,1.173,0.808c0.439,0.145,1.773,0.33,5.639,0.396l0.638,0.011v3.922l-0.681-0.033
				c-3.836-0.188-7.397-0.284-10.587-0.284c-2.564,0-6.979,0.096-13.124,0.284l-0.668,0.021v-3.909l0.638-0.011
				c3.865-0.065,5.2-0.251,5.639-0.395c0.556-0.183,0.933-0.417,1.12-0.699c0.132-0.223,0.397-1.027,0.499-3.61
				c0.023-0.404,0.077-2.722,0.203-11.529l-0.001-18.816c0-3.691-0.041-7.325-0.121-10.8c-0.107-3.407-0.397-4.102-0.484-4.233
				c-0.23-0.352-0.612-0.612-1.168-0.797c-0.429-0.144-1.764-0.328-5.687-0.395l-0.638-0.011v-3.904l13.318,0.301
				c1.518-0.001,3.934-0.05,7.167-0.146c4.364-0.15,6.712-0.221,7.385-0.221c5.234,0,9.126,0.48,11.566,1.427
				c2.495,0.971,4.456,2.57,5.827,4.756c1.362,2.171,2.053,4.565,2.053,7.118c0,2.377-0.643,4.768-1.909,7.104
				c-1.269,2.338-3.129,4.306-5.528,5.85c-2.167,1.395-4.955,2.511-8.297,3.323c0.846,1.14,2.258,2.992,4.214,5.529l10.264,13.485
				c3.587,4.628,4.717,5.936,5.032,6.216c0.151,0.116,0.333,0.219,0.51,0.279c0.186,0.062,0.762,0.167,2.473,0.167h0.648v3.964
				L673.896,616.036z"/>
			<path style="fill:#EBAB21;" d="M742.505,616.038c-4.407-0.188-8.259-0.284-11.447-0.284c-3.052,0-7.165,0.096-12.224,0.284
				l-0.673,0.025v-3.914l0.638-0.011c3.865-0.065,5.2-0.251,5.639-0.395c0.538-0.177,0.905-0.41,1.063-0.674
				c0.141-0.218,0.451-0.969,0.556-3.64c0.023-0.405,0.077-2.725,0.203-11.539l-0.001-4.607c-0.538-1.145-1.071-2.194-1.586-3.121
				c-0.38-0.676-1.773-3.021-4.141-6.97l-2.682-4.385c-2.088-3.422-3.668-5.898-4.697-7.359c-1.945-2.769-3.572-4.771-4.837-5.955
				c-0.641-0.614-1.308-1.045-1.988-1.284c-0.699-0.244-1.839-0.368-3.386-0.368h-0.648v-3.664l10.501-2.049l0.166,0.059
				c1.168,0.407,1.966,0.797,2.439,1.189c0.453,0.379,1.324,1.432,2.667,3.219c1.934,2.583,4.194,6.147,6.719,10.594
				c2.366,4.169,4.909,8.96,7.567,14.257c2.665-4.125,5.423-8.631,8.208-13.409l8.865-15.073h7.222v1.997l-0.168,0.186
				c-1.468,1.626-4.219,5.23-8.175,10.713c-2.286,3.171-5.302,7.847-8.963,13.897c-2.829,4.619-3.654,6.251-3.85,6.807
				c-0.272,0.779-0.41,1.521-0.41,2.204v3.133c0,3.652,0.041,7.275,0.121,10.769c0.107,3.414,0.401,4.127,0.488,4.264
				c0.231,0.362,0.612,0.628,1.165,0.812c0.431,0.145,1.767,0.329,5.686,0.395l0.638,0.01v3.919L742.505,616.038z"/>
		</g>
	</g>
</g>
</svg>
