<?xml version="1.0" encoding="utf-8"?>
<!-- Generator: Adobe Illustrator 18.1.1, SVG Export Plug-In . SVG Version: 6.00 Build 0)  -->
<svg version="1.1" id="Layer_1" xmlns="http://www.w3.org/2000/svg" xmlns:xlink="http://www.w3.org/1999/xlink" x="0px" y="0px"
	 viewBox="0 0 614.3 101" enable-background="new 0 0 614.3 101" xml:space="preserve">
<g>
	<g>
		<path fill="#FFFFFF" d="M19.2,41l-0.5-0.2C12.6,38.2,7,35.6,7,29.2c0-6.1,4.2-9.6,11.4-9.6c3.3,0,6.9,0.6,9,1.1l1.7,8.9
			c0.1,0.5,0.3,1.1,1.2,1.1h1.9c0.7,0,1.2-0.5,1.2-1.2l-0.6-12.3c0-0.4-0.2-1-1.1-1h-2.6c-0.8,0-1.7-0.2-2.9-0.5
			c-1.9-0.4-4.4-1-7.8-1c-10.9,0-17.4,5.4-17.4,14.5c0,10.2,7.7,13.6,15.2,16.8l0.1,0c6.5,2.8,12.7,5.4,12.7,12.6
			c0,7.4-4.4,11.5-12.4,11.5c-4.2,0-8-0.9-10.4-1.7l-1.9-9.9c-0.1-0.6-0.3-1-1.1-1H1.1C0.4,57.6,0,58,0,58.7l0.6,13.5
			c0,1,1,1.2,2,1.2h2c1.5,0,3.2,0.3,4.9,0.6c2,0.3,4.3,0.7,6.9,0.7c11.6,0,18.6-6.1,18.6-16.2C34.9,48,26.6,44.3,19.2,41z"/>
		<path fill="#FFFFFF" d="M76.4,65.5c-0.2-0.4-0.7-0.5-1.2-0.2c-3.4,2.6-5.7,3.9-9.1,3.9c-3.8,0-8.2-1.1-8.2-9.4V21h16.7
			c0.7,0,1.1-0.4,1.1-1.1v-2.6c0-0.6-0.5-1.1-1.1-1.1H58.1V1.3c0-0.6-0.4-1.3-1.4-1.3h-2.6c-1,0-1.3,0.7-1.4,1.3l-0.7,14.6
			c0,0.1-0.1,0.3-0.3,0.3h-8.5c-0.6,0-1.1,0.5-1.1,1.1v2.6c0,0.7,0.4,1.1,1.1,1.1h8.8v39c0,12.8,8,14.7,12.7,14.7
			c4.4,0,8.6-1.5,13.2-4.7c0.6-0.4,0.4-0.9,0.2-1.3L76.4,65.5z"/>
		<path fill="#FFFFFF" d="M124.8,15.4c-1.2-0.3-2.9-0.6-4.9-0.6c-5.4,0-15,1.5-18.8,11.1c0.2-2,0.3-4.2,0.3-5.6v-2.9
			c0-1.2-0.9-1.7-1.4-1.7h0l-13.2,0.7c-0.6,0-1.1,0.5-1.1,1.1v2c0,0.7,0.4,1.1,1.1,1.1h0l8.1,0.7c0.8,0.1,1,0.5,1,1.1v45.8
			c0,0.6-0.2,1-1,1.1l-7.4,1.2c-0.4,0.1-1,0.3-1,1.1v1.7c0,0.6,0.5,1.1,1.1,1.1h25.9c0.6,0,1.1-0.5,1.1-1.1v-1.7
			c0-0.7-0.4-1.1-1-1.1h0l-10.7-1.2c-0.8-0.1-1-0.5-1-1.1V38.5c0-11.9,6.9-19,18.4-19l0.3,0.2l2,9.7c0.1,0.5,0.3,0.9,0.9,0.9h2.6
			c0.4,0,1-0.2,1-1.1L126.3,17C126.3,16.1,125.9,15.7,124.8,15.4z"/>
		<path fill="#FFFFFF" d="M156.3,14.8c-15.1,0-22.8,10.1-22.8,30.1c0,20.5,7.3,30,22.8,30c15.6,0,22.9-9.5,22.9-30
			C179.2,24.9,171.5,14.8,156.3,14.8z M173,44.9c0,17.6-5.1,25.5-16.7,25.5c-11.3,0-16.6-8.1-16.6-25.5c0-17.6,5.1-25.5,16.6-25.5
			C167.8,19.4,173,27.3,173,44.9z"/>
		<path fill="#FFFFFF" d="M242.6,70.7l-7.4-1.2c-0.8-0.1-1-0.5-1-1.1V31.5c0-13.8-9-16.7-16.5-16.7c-9.3,0-15,5.2-18.2,9.7v-7
			c0-1.2-0.9-1.7-1.4-1.7h0l-13,0.7c-0.6,0-1.1,0.5-1.1,1.1v2c0,0.7,0.4,1.1,1,1.1h0l8.1,0.7c0.8,0.1,1,0.5,1,1.1v45.9
			c0,0.6-0.2,1-1,1.1l-7.4,1.2c-0.4,0.1-1,0.3-1,1.1v1.7c0,0.6,0.5,1.1,1.1,1.1h22.1c0.6,0,1.1-0.5,1.1-1.1v-1.7c0-0.8-0.6-1-1-1.1
			l-6.9-1.2c-0.8-0.1-1-0.5-1-1.1V31c4.3-7.1,10.7-11.2,17.4-11.2c7.3,0,10.9,3.9,10.9,12v36.7c0,0.6-0.2,1-1,1.1l-6.8,1.2
			c-0.4,0.1-1,0.3-1,1.1v1.7c0,0.6,0.5,1.1,1.1,1.1h22c0.6,0,1.1-0.5,1.1-1.1v-1.7C243.7,71,243.1,70.8,242.6,70.7z"/>
	</g>
	<path fill="#FFFFFF" d="M346.3,26.7c-3.2-5.3-7.1-6.8-11.2-6.8c-6.3,0-9.4,4.5-9.4,8.6c0,14.5,29.5,9.8,29.5,29.4
		c0,10.7-8.4,17.3-19.3,17.3c-11.3,0-18.5-6.8-20.7-16l5.5-2.9c2.2,7,5.8,13.6,15.2,13.6c7.3,0,12.7-4,12.7-11.9
		c0-14.7-29.2-11-29.2-28.8c0-8.8,7.3-14.6,15.8-14.6c9.9,0,13.2,4.1,16.4,9.1L346.3,26.7z"/>
	<path fill="#FFFFFF" d="M359.6,15h45.5v5.3h-19.6v54.3h-6.2V20.3h-19.6V15z"/>
	<path fill="#FFFFFF" d="M415.5,14.8h6.2V56c0,7.4,5.4,14,16.4,14c11,0,16.4-6.6,16.4-14V14.8h6.2v40.7c0,13.2-10.6,19.8-22.6,19.8
		s-22.6-6.7-22.6-19.8V14.8z"/>
	<path fill="#FFFFFF" d="M493.2,15.1c16.9,0,29.9,11.1,29.9,29.6c0,18.6-13,29.7-29.9,29.7h-17.3V15.1H493.2z M482.1,20.3v48.8h11.2
		c12.1,0,23.3-7.4,23.3-24.4c0-17-11.2-24.4-23.3-24.4H482.1z"/>
	<path fill="#FFFFFF" d="M542.2,74.4H536V15h6.2V74.4z"/>
	<path fill="#FFFFFF" d="M614.3,45c0,18.8-13.4,30.3-28.9,30.3c-15.4,0-28.9-11.5-28.9-30.3c0-18.8,13.4-30.3,28.9-30.3
		C600.8,14.7,614.3,26.2,614.3,45z M563,45c0,16.6,10.1,25,22.4,25c12.3,0,22.4-8.5,22.4-25c0-16.6-10.1-25-22.4-25
		C573.1,20,563,28.4,563,45z"/>
	<g>
		<path fill="#FFFFFF" d="M292.5,78.1c0,17.8-10.1,22.9-23.2,22.9c-5,0-10.7-0.8-13.7-0.8h-3.1c-0.6,0-0.9-0.5-0.9-0.8l-0.6-14
			c0-0.6,0.2-0.9,0.7-0.9h2.4c0.5,0,0.7,0.4,0.8,0.9l1.8,10.1c2.1,0.6,7.6,1.4,12.7,1.4c8.5,0,17.8-2,17.8-19.4c0-5-0.1-10-0.2-14.9
			h-0.2c-3.7,7.7-9.6,12.3-17.5,12.3c-12.8,0-20.6-8.8-20.6-29.3c0-19,7-30.5,22.2-30.5c8.9,0,14,3.8,16.7,8.3h0.2l1.1-6.8
			c0.1-0.7,0.5-0.9,1.1-0.8l3.9,0.9c0.5,0.1,0.5,0.5,0.4,0.9c-0.6,3-2,12.1-2,23.2C291.9,55.3,292.5,65.9,292.5,78.1z M269.6,70.9
			c9.4,0,17.4-9.4,17.4-30.2c0-16-5.8-21.4-16.2-21.4c-10.5,0-16.6,6-16.6,27.1C254.2,70.1,264.3,70.9,269.6,70.9z"/>
	</g>
</g>
</svg>
