<?xml version="1.0" encoding="iso-8859-1"?>
<!-- Generator: Adobe Illustrator 18.1.1, SVG Export Plug-In . SVG Version: 6.00 Build 0)  -->
<svg version="1.1" id="Layer_1" xmlns="http://www.w3.org/2000/svg" xmlns:xlink="http://www.w3.org/1999/xlink" x="0px" y="0px"
	 viewBox="0 0 16 16" style="enable-background:new 0 0 16 16;" xml:space="preserve">
<path style="fill:#FFFFFF;" d="M11.383,12.737c-0.022,0.172-0.23,0.428-0.389,0.459c-0.891,0.171-1.805,0.445-2.69,0.384
	c-1.742-0.12-2.507-1.048-2.537-2.796C5.746,9.575,5.763,8.366,5.763,7.126c-0.425-0.028-0.76-0.05-1.177-0.077
	c0-0.426-0.017-0.834,0.01-1.238c0.009-0.135,0.1-0.328,0.206-0.372c1.28-0.538,1.86-1.524,2.022-2.885H8.34v2.723h2.724v1.872H8.45
	c0,1.192-0.015,2.376,0.005,3.499c0.014,0.78,0.37,1.111,1.147,1.134c0.295,0.009,0.6-0.025,0.887-0.093
	c0.282-0.068,0.547-0.212,0.912-0.358C11.401,11.844,11.438,12.294,11.383,12.737 M16,2.043C16,0.915,15.086,0,13.957,0H2.043
	C0.914,0,0,0.915,0,2.043v11.915C0,15.086,0.914,16,2.043,16h11.914C15.086,16,16,15.086,16,13.958V2.043z"/>
</svg>
