<?xml version="1.0" encoding="iso-8859-1"?>
<!-- Generator: Adobe Illustrator 18.1.1, SVG Export Plug-In . SVG Version: 6.00 Build 0)  -->
<svg version="1.1" id="Layer_1" xmlns="http://www.w3.org/2000/svg" xmlns:xlink="http://www.w3.org/1999/xlink" x="0px" y="0px"
	 viewBox="0 0 16 16" style="enable-background:new 0 0 16 16;" xml:space="preserve">
<g>
	<path style="fill:#FFFFFF;" d="M11.529,5.734h4.381c0.03,0.234,0.08,0.447,0.081,0.66c0.006,2.099,0.016,4.199,0,6.298
		c-0.016,2.041-1.244,3.275-3.309,3.29c-3.128,0.023-6.257,0.025-9.386-0.001c-1.982-0.016-3.232-1.306-3.24-3.278
		c-0.008-2.294-0.002-4.589-0.002-6.94h4.44c-0.885,2.738-0.561,4.382,1.089,5.586c1.468,1.071,3.402,1.074,4.851,0.008
		C12.101,10.131,12.437,8.467,11.529,5.734"/>
	<path style="fill:#FFFFFF;" d="M11.851,2.622c0,1.444,0,1.444,1.273,1.446c1.46,0.002,1.46,0.002,1.461-1.267
		c0.001-1.533,0.001-1.533-1.367-1.533C11.852,1.268,11.852,1.268,11.851,2.622 M2.446,0.141v3.702
		C2.524,3.9,2.602,3.956,2.68,4.012c0.151-0.178,0.425-0.349,0.435-0.534C3.161,2.601,3.133,1.72,3.138,0.84
		C3.14,0.579,3.165,0.318,3.179,0.056C3.262,0.05,3.345,0.043,3.428,0.037C3.465,0.251,3.53,0.465,3.532,0.679
		c0.013,0.937-0.009,1.874,0.023,2.809c0.006,0.158,0.214,0.31,0.328,0.464C3.999,3.799,4.21,3.649,4.214,3.494
		c0.028-1.129,0.015-2.258,0.015-3.449c0.365-0.017,0.641-0.04,0.918-0.04c2.503-0.003,5.007-0.01,7.511,0.001
		c2.095,0.01,3.317,1.243,3.337,3.341c0.005,0.566,0,1.132,0,1.82c-1.679,0-3.317,0.009-4.955-0.014
		c-0.164-0.002-0.33-0.192-0.486-0.306C8.971,3.692,7.165,3.688,5.551,4.78C5.228,4.999,4.793,5.145,4.404,5.158
		C2.989,5.202,1.572,5.175,0.169,5.175c-0.407-2.187-0.103-3.45,1.191-4.559c0,0.979-0.022,1.833,0.014,2.685
		c0.01,0.221,0.203,0.434,0.311,0.651c0.116-0.21,0.322-0.415,0.333-0.629c0.04-0.821,0.005-1.646,0.023-2.468
		c0.006-0.254,0.09-0.506,0.139-0.759C2.269,0.111,2.357,0.126,2.446,0.141"/>
	<path style="fill:#FFFFFF;" d="M10.361,8.029C10.344,6.768,9.265,5.703,8.014,5.71C6.73,5.719,5.655,6.845,5.692,8.14
		c0.037,1.255,1.148,2.312,2.39,2.273C9.346,10.374,10.378,9.295,10.361,8.029 M7.981,4.95c1.75-0.013,3.164,1.354,3.184,3.078
		c0.02,1.736-1.359,3.128-3.114,3.143c-1.749,0.016-3.171-1.35-3.2-3.073C4.822,6.4,6.25,4.963,7.981,4.95"/>
</g>
</svg>
