<?xml version="1.0" encoding="iso-8859-1"?>
<!-- Generator: Adobe Illustrator 18.1.1, SVG Export Plug-In . SVG Version: 6.00 Build 0)  -->
<svg version="1.1" id="Layer_1" xmlns="http://www.w3.org/2000/svg" xmlns:xlink="http://www.w3.org/1999/xlink" x="0px" y="0px"
	 viewBox="0 0 441.64 205.552" style="enable-background:new 0 0 441.64 205.552;" xml:space="preserve">
<g>
	<g>
		<path style="fill:#455560;" d="M26.775,163.877c1.898-0.891,2.501-2.332,3.817-3.82c2.58-2.92,6.332-5.013,9.18-8.14
			c1.432-1.569,2.559-3.159,4.04-4.573c1.484-1.417,3.052-2.762,4.597-4.17c4.551-4.146,9.104-8.415,13.413-12.701
			c3.003-2.989,5.739-5.778,8.455-8.944c1.338-1.548,3.04-2.836,4.417-4.364c4.188-4.638,8.356-9.048,11.601-14.702
			c2.216-3.868,4.667-6.984,6.835-10.927c1.17-2.124,2.829-4.188,3.147-5.763c1.028-5.134-0.475-10.797-4.126-13.181
			c-0.934-0.616-2.651-1.531-3.909-2.103c-1.965-0.899-4.258-1.381-6.808-1.291c-2.155,0.079-4.883,0.229-6.71,0.626
			c-1.659,0.368-3.349,1.057-4.868,1.865c-1.53,0.81-3.07,1.514-4.502,2.258c-1.472,0.765-3.076,1.417-4.5,2.26
			c-4.148,2.451-8.27,7.141-12.186,11.05c-1.952,1.949-4.291,3.482-6.183,5.421c-1.943,1.989-4.212,3.89-5.833,6.017
			c-3.514,4.614-6.524,10.739-8.657,16.943c-0.777,2.267-2.054,5.369-2.054,6.773c0,0.955,0.695,1.442,0.655,2.324
			c-0.037,0.749-0.756,1.505-0.876,2.247c-0.248,1.507,0.073,3.162-0.232,4.762c-0.373,1.939-1.229,3.787-1.424,5.658
			c-0.269,2.574-0.07,5.214-0.193,7.823c-0.128,2.618,0.061,5.554-0.392,7.996c-0.167,0.885-0.716,1.694-0.893,2.627
			c-0.453,2.355-0.169,4.914-0.184,7.626C23.682,164.415,25.409,163.435,26.775,163.877 M28.198,88.159
			c2.176-0.086,3.318-1.962,4.913-2.813c0.616-0.327,1.355-0.327,1.941-0.671c4.496-2.614,6.061-8.283,9.574-12.317
			c2.586-2.968,5.769-4.138,9.277-6.228c1.399-0.834,2.648-2.184,4.503-2.257c1.215-2.46,3.271-3.198,6.321-4.273
			c1.411-0.502,2.678-1.519,3.709-1.726c2.862-0.584,6.931,0.456,10.839,0.909c1.959,0.233,4.414,0.148,6.265,0.695
			c1.708,0.503,3.852,1.51,5.798,2.386c2.036,0.902,4.276,1.817,5.403,2.742c1.624,1.338,2.693,4,4.747,4.432
			c0.356,2.807,3.414,3.75,4.442,6.709c1.972,5.657,0.526,14.305-1.169,19.989c-0.038,0.759,0.324,1.157,0.284,1.922
			c-2.666,4.334-4.221,9.162-6.963,13.593c-0.891,1.437-1.561,3.175-2.504,4.27c-0.575,0.674-1.601,0.925-2.179,1.613
			c-0.552,0.656-0.779,1.682-1.265,2.416c-1.378,2.082-3.796,4.182-5.838,6.208c-9.978,9.88-19.929,19.375-29.701,29.469
			c-2.861,2.956-5.831,5.898-8.833,8.913c-0.435,0.442-0.915,1.229-1.42,1.653c-1.161,0.975-2.476,1.318-2.651,3.5
			c-11.677,9.066-22.498,19.077-28.237,34.696c-3.479,2.116-8.769,2.179-12.011-0.404c-1.258-3.365-0.768-7.11-0.982-11.119
			C1.703,177.801,1.693,159.764,3.839,145c1.037-7.147,2.807-13.915,5.514-19.008c0.382-2.238,1.209-4.377,2.224-6.385
			c0.487-0.973,1.421-1.574,1.647-2.399c0.379-1.402-0.07-3.772,0.067-5.345c0.212-2.388,1.154-4.889,1.097-6.817
			c-0.043-1.58-1.24-3.192-1.29-4.837c-0.015-0.542,0.42-1.118,0.466-1.696c0.109-1.353,0.024-3.119,0.041-4.768
			c0.035-3.16-0.71-5.838-1.092-8.838c-0.29-2.243-0.673-4.646-0.818-6.721c-0.226-3.221,0.049-6.46-0.293-9.56
			c-0.306-2.746-0.91-6.948-0.64-10.339c-0.54-1.348-1.121-3.271-0.337-4.792c-0.437-1.423-0.45-3.228-1.517-4.08
			c0.979-4.242-3.793-4.394-3.332-9.356c-4.101-1.424-2.475-8.788-3.409-13.64c-0.986-5.155,0.19-10.625-1.705-15.684
			c-2.045-5.458,3.315-9.104,3.983-10.41C4.472,0.175,5.103-0.22,5.024,0.16c1.73,0.152,3.091,2.161,4.82,2.911
			c0.338,3.312,1.761,5.997,2.807,8.923c1.791,5.001,1.641,11.573,3.989,16.036c1.104,4.448,1.702,9.84,2.1,15.568
			c0.245,3.554,0.964,7.108,1.151,11.51c0.257,5.95,1.638,11.888,2.001,17.662c0.19,3.064,0.879,5.366,1.513,8.096
			c0.287,1.254,0.143,2.402,0.59,3.461C24.73,86.074,26.956,86.8,28.198,88.159"/>
		<path style="fill:#455560;" d="M219.938,106.152c0.408-0.587,0.408-1.427,0.859-2.053c0.765-1.069,2.302-2.111,3.408-3.271
			c1.166-1.224,2.042-2.74,3.049-3.856c1.195-1.323,5.993-3.894,5.452-6.031c-0.4-1.592-3.219-0.792-4.564-0.419
			c-3.291,0.918-4.427,2.556-7.267,4.221c-1.662,0.979-3.75,1.699-5.286,2.804c-2.07,1.466-3.79,3.774-5.804,5.436
			c-2.266,1.867-4.267,3.762-5.817,5.635c-4.195,1.586-6.348,5.443-8.474,9.316c-3.072,1.841-4.641,4.75-7.068,7.863
			c-2.076,2.678-4.81,5.704-3.104,8.822c1.968,0.176,2.774-1.806,4.141-2.664c0.652-0.406,1.475-0.437,2.141-0.843
			c0.792-0.484,1.385-1.324,2.188-1.8c2.693-1.626,5.714-3.035,8.062-4.765c1.77-1.309,2.914-3.496,4.629-4.928
			c1.312-1.092,2.897-1.831,4.159-3.04c1.65-1.588,2.608-3.987,4.815-4.726C216.378,109.381,218.536,108.166,219.938,106.152
			 M332.958,133.271c-2.783,0.96-4.666,3.77-6.601,5.979c-2.768,3.162-4.061,6.185-6.776,9.783
			c-1.291,1.722-2.564,3.527-3.886,5.345c-2.693,3.698-4.621,8.122-7.428,11.284c-2.744,3.085-6.382,5.175-8.627,8.54
			c-2.316,0.033-2.861,2.735-4.589,3.979c-0.84,0.612-2.678,1.178-4.101,1.9c-1.304,0.67-2.688,1.716-3.73,2.107
			c-2.906,1.088-6.72,1.112-8.959-0.248c-3.429-2.08-5.832-5.976-7.342-9.909c0.233-2.107-1.503-4.14-1.778-6.573
			c-0.104-0.894,0.267-1.764,0.132-2.666c-0.102-0.682-0.738-1.324-0.858-1.952c-0.263-1.333,0.548-2.682-0.398-3.649
			c-2.286,0.98-3.413,3.365-5.21,5.093c-5.204,5.017-11.242,9.79-17.663,13.641c-0.814,0.155,0.995,0.235,0.173,0.388
			c-1.62,1.301-3.686,1.907-5.5,3.175c-0.831,0.574-1.354,1.417-2.19,1.988c-2.374,1.62-5.357,2.843-7.865,4.576
			c-1.085,0.753-1.874,2.158-3.007,2.908c-1.408,0.941-3.521,1.772-5.282,2.606c-1.73,0.816-3.546,1.453-5.272,2.41
			c-3.321,1.852-6.85,4.752-10.19,5.419c-2.013,0.403-3.868,0.158-5.76,0.673c-0.976,0.263-1.735,1.073-2.733,1.204
			c-3.306,0.434-6.85-0.621-9.654-1.626c-3.449-1.226-6.233-1.725-8.806-3.48c-0.59-0.409-1.237-1.446-1.989-2.197
			c-0.692-0.693-1.662-1.223-2.202-1.826c-0.465-0.526-0.59-1.294-1.06-1.773c-0.851-0.867-2.139-1.214-2.953-2.06
			c-1.2-1.226-1.265-2.911-2.666-3.945c0.009-2.496-1.006-4.065-2.218-5.449c0.801-1.569-0.043-1.943-0.615-3.088
			c-0.225-4.463-0.347-10.815,0.281-17.358c0.417-4.322,0.154-8.929,0.799-12.366c0.114-0.596,0.579-1.27,0.667-1.878
			c0.248-1.802,0.028-3.32,0.438-5.135c0.154-0.658,0.584-1.447,0.68-2.065c0.111-0.748-0.248-1.465-0.089-2.099
			c0.502-2.075,1.941-4.49,2.99-6.544c1.069-2.077,2.655-3.893,3.527-5.745c1.228-2.594,1.747-5.46,3.248-7.854
			c2.13-3.385,5.766-6.673,7.581-10.505c0.432-0.918,0.441-1.94,0.901-2.825c3-5.766,8.787-7.766,13.186-11.953
			c0.592-0.16,1.157-0.327,1.746-0.49c4.931-2.85,8.518-7.188,13.648-9.825c2.405-4.127,8.686-5.26,13.51-6.787
			c2.37-0.746,5.148-2.69,7.574-2.684c6.505,0.034,8.328,6.775,13.102,9.235c6.46,12.626-6.157,21.137-11.361,29.223
			c-1.447,2.263-1.633,4.366-4.074,5.338c-0.605,0.637,0.403,1.096-0.087,1.714c-5.506,5.091-11.679,10.509-17.019,16.156
			c-1.535,1.621-3.374,3.605-5.008,4.718c-1.2,0.824-2.679,1.159-3.905,1.907c-6.294,3.838-11.89,8.898-16.211,15.238
			c-1.369,0.012-1.929,1.402-3.162,2.138c-1.972,1.186-4.501,0.891-4.956,3.77c-2.13,1.127-4.814,1.231-5.702,3.345
			c-0.835,1.987-1.35,9.397-0.967,11.983c0.217,1.465,1.434,2.995,2.46,4.316c1.565,2.018,2.691,4.347,4.687,5.575
			c2.36,1.452,6.333,1.897,10.232,1.646c3.683-0.239,7.723-2.322,11.828-3.814c0.93-0.329,2.014-0.287,2.898-0.616
			c1.95-0.732,4.649-2.11,6.823-2.911c3.336-1.229,6.505-1.845,8.742-3.202c5.192-4.304,10.472-8.05,15.332-12.8
			c1.638-1.61,2.651-3.853,4.28-5.512c1.48-1.516,3.91-2.26,5.7-3.351c3.189-3.055,5.674-6.609,8.148-10.483
			c2.367-3.703,4.657-7.683,7.237-11.29c0.819-1.148,2.003-1.836,2.815-2.914c3.181-4.244,4.525-9.783,5.748-15.951
			c0.281-1.437,0.111-2.927,0.4-4.366c0.844-4.137,2.876-8.588,4.087-13.165c1.554-5.92,4.52-10.687,5.419-17.297
			c0.296-2.128-0.006-4.638,0.329-6.472c0.263-1.458,1.498-4.312,2.514-4.653c1.456-0.483,3.046,1.755,4.239,3.07
			c1.249,1.375,2.995,2.97,3.432,3.989c0.296,0.674,0.221,1.662,0.46,2.311c0.561,1.519,1.856,2.43,1.922,3.726
			c0.11,2.25,0,4.505,0.057,6.678c0.039,2.076,0.458,4.164,0.452,6.135c-0.004,2.938-0.786,6.505-1.235,9.675
			c-0.451,3.218-0.696,6.668-1.419,9.477c-1.334,5.185-4.526,10.775-6.685,15.708c-0.75,1.704-1.91,3.459-2.353,5.04
			c-0.319,1.148-0.093,2.2-0.338,3.037c-0.263,0.896-1.021,1.549-1.264,2.421c-0.197,0.709,0.026,1.566-0.111,2.284
			c-0.541,2.81-2.396,5.515-1.184,8.534c-0.583,0.75-0.361,1.641-0.499,2.448c-0.155,0.905-0.532,1.614-0.505,2.463
			c0.039,1.189,1.333,1.859,1.566,3.127c0.29,1.641-1.109,2.953,0.373,4.032c1.426,0.167,0.986-1.725,1.826-2.2
			c3.115-1.147,5.91-2.768,8.26-4.938c0.986-0.921,1.488-2.287,2.442-3.133c2.206-1.92,5.123-2.891,7.12-4.992
			c5.488-5.79,8.678-12.36,13.189-19.779c0.525-5.904,3.61-10.379,6.695-15.896c1.614-2.886,4.173-9.626,7.15-9.58
			c1.689,0.027,3.268,2.05,4.439,3.079c1.456,1.294,2.598,2.348,3.836,3.438c2.092,6.939,3.506,14.025,6.462,19.985
			c1.247,2.508,3.271,4.911,4.792,7.478c1.485,2.525,2.959,5.449,4.592,7.482c0.995,1.231,2.627,1.802,3.861,3.052
			c1.549,1.581,2.135,4.218,3.537,5.706c0.609,0.654,1.781,1.037,2.594,1.659c2.278,1.758,4.541,3.754,6.98,5.497
			c1.581,1.13,3.429,2.119,4.992,3.297c2.92,2.2,3.523,3.435,7.394,4.947c2.225,0.867,5.599,2.46,8.708,1.572
			c2.469-0.705,4.812-3.145,6.734-5.016c0.888-0.867,2.039-1.492,2.592-2.164c0.894-1.101,1.555-2.538,2.469-3.695
			c0.882-1.108,1.973-2.164,2.648-3.312c0.927-1.558,1.298-3.51,2.164-5.234c1.354-2.711,3.432-4.968,4.772-7.78
			c1.327-2.792,2.979-5.518,4.047-8.586c2.147-6.156,3.896-12.884,5.381-20.163c1.883-9.201,5.565-17.726,6.895-27.727
			c0.834-6.286-0.395-12.919,1.247-17.688c-0.986-4.491,0.206-9.413-1.626-13.447c-1.608-3.545-4.612-7.144-8.947-8.268
			c-3.509-0.903-6.914,0.521-9.44,1.644c-1.814,0.799-4.086,1.788-5.722-0.094c-0.843-0.972-0.873-3.557-0.141-4.971
			c0.416-0.799,1.617-1.06,2.777-2.152c0.763-0.707,1.246-1.849,1.841-2.395c2.442-2.24,5.928-3.894,8.057-4.753
			c3.326-1.35,10.104,1.083,11.915,2.302c2.062,1.375,2.257,2.326,3.966,4.772c2.532,3.627,3.271,7.159,4.936,12.271
			c1.148,3.533,3.043,6.887,2.921,10.447c-0.242,7.43-1.868,17.095-2.535,24.505c-0.518,5.753-0.538,10.689-1.139,15.406
			c-0.568,4.454-2.254,8.733-3.516,13.193c-0.476,1.709-0.837,3.75-1.226,5.669c-0.957,4.711-1.984,8.855-3.339,13.583
			c-0.631,2.176-0.727,4.559-1.45,6.224c-0.812,1.865-2.373,3.754-3.336,5.754c-1.916,3.976-3.117,8.289-4.609,12.188
			c-2.182,5.718-4.645,11.517-8.034,15.83c-1.492,1.904-6.104,5.643-8.125,6.093c-1.249,0.277-2.567,0.28-3.851,0.765
			c-2.695,1.011-4.34,2.855-6.639,2.918c-4.28,0.128-6.555,0.023-10.065-1.064c-4.302-4.352-11.559-6.023-14.513-11.595
			c-2.978-0.78-4.292-2.909-6.433-5.088c-7.542-7.686-14.871-15.499-22.712-23.45c-1.898-1.925-3.73-3.043-4.308-5.554
			c-1.049-0.688-1.707-1.729-2.744-2.431C332.538,134.556,332.794,133.967,332.958,133.271"/>
		<path style="fill:#455560;" d="M190.315,80.069c-2.275-2.626-8.589-3.371-13.771-3.351c-0.913,0.003-1.773,0.593-2.704,0.634
			c-1.939,0.085-3.636,0.027-5.76,0.67c-5.155,1.568-10.613,5.596-15.538,9.355c-2.55,1.949-5.319,3.192-7.501,4.986
			c-3.276,2.681-5.026,6.759-8.645,8.926c-2.406,2.651-3.671,6.232-5.476,10.419c-1.093,2.538-2.483,5.161-3.049,7.678
			c-0.563,2.501-0.538,5.124-0.958,7.783c-0.345,2.235-1.347,4.453-1.665,6.785c-0.284,2.074-0.039,4.34-0.321,6.48
			c-0.83,6.436-1.732,12.432,0.438,18.348c0.141,0.96-0.441,1.115-0.651,1.686c1.083,1.196,1.382,3.913,0.299,5.552
			c0.104,2.511,1.094,5.646,1.264,9.225c0.114,2.35-0.52,4.833-0.354,7.236c0.082,1.211,1.04,2.479,1.157,3.686
			c0.055,0.577-0.371,1.014-0.266,1.51c0.196,0.933,0.946,1.507,1.028,2.344c0.868,8.405-5.433,10.737-12.048,8.19
			c-0.582-4.065-0.955-8.498-1.458-13.054c-0.458-4.209-1.373-8.657-1.457-13.051c-0.167-8.54,0.196-17.355-0.045-26.35
			c-0.072-2.574-0.466-4.861-0.19-7.832c0.869-9.326,0.649-20.546,2.028-29.683c0.537-3.545,1.007-6.85,1.445-10.045
			c0.196-1.393,0.444-3.154,0.789-4.351c0.35-1.227,1.127-1.955,1.29-2.99c0.152-0.93-0.193-1.803-0.049-2.868
			c0.097-0.685,0.619-1.331,0.878-2.25c1.012-3.672,0.755-6.266,3.263-8.237c0.07-3.741,1.479-6.005,3.067-8.059
			c5.721-0.659,9.994,2.749,11.707,6.485c1.727,0.233,2.958-0.082,3.315-1.356c4.46-2.136,8.826-4.793,13.686-6.583
			c0.879-0.327,1.837-0.297,2.702-0.634c3.142-1.224,6.037-3.008,8.993-4.331c2.385,0.034,3.898-0.07,5.382-0.692
			c2.816-0.365,4.472,1.319,6.581,2.041c0.674,0.227,1.378,0.052,1.895,0.282c0.814,0.369,1.916,1.42,2.956,2.054
			c1.031,0.631,2.403,1.279,3.146,1.872c1.176,0.928,1.36,2.746,3.104,3.018c0.515,1.773,1.004,3.698,2.605,5.281
			C191.42,78.346,191.184,79.192,190.315,80.069"/>
	</g>
</g>
</svg>
