<?xml version="1.0" encoding="iso-8859-1"?>
<!-- Generator: Adobe Illustrator 18.1.1, SVG Export Plug-In . SVG Version: 6.00 Build 0)  -->
<svg version="1.1" id="Layer_1" xmlns="http://www.w3.org/2000/svg" xmlns:xlink="http://www.w3.org/1999/xlink" x="0px" y="0px"
	 viewBox="0 0 416.563 132.073" style="enable-background:new 0 0 416.563 132.073;" xml:space="preserve">
<g>
	<g>
		<g>
			<path d="M162.117,53.582c-9.73,0-19.395-8.022-19.395-19.461c0-8.875,5.983-17.488,14.792-20.249l0.197,0.328
				c-2.169,1.577-4.602,4.076-5.983,7.758l13.741-6.181v20.579l-10.979,4.931c2.827,3.089,6.771,4.535,10.913,4.535
				c2.301,0,4.536-0.525,6.64-1.576V30.373l-4.076-3.287v-0.197l4.076-3.616v-7.625c-2.301-0.264-6.246-1.513-10.19-2.631
				c-4.537-1.314-8.875-2.564-11.176-2.564c-2.63,0-3.879,1.446-3.879,2.959c0,2.17,0.986,2.893,1.775,3.419l-0.198,0.394
				c-1.315-0.525-4.733-2.169-4.733-6.573c0-4.997,4.076-8.876,9.664-8.876c2.893,0,6.903,1.249,10.519,2.433
				c3.287,1.052,6.246,2.169,8.415,2.169c2.433,0,3.222-1.709,3.222-2.893c0-1.249-0.854-2.826-2.827-3.023L172.702,0
				c4.208,0.46,7.758,2.826,7.758,8.283c0,4.273-3.616,7.364-7.824,7.364v7.625l4.077,3.485v0.197l-4.077,3.418v13.61
				c3.419-1.907,5.983-4.866,7.692-8.481l0.394,0.131C180.132,45.626,173.36,53.582,162.117,53.582z M157.384,20.117l-5.917,2.563
				c-0.657,1.842-0.986,4.142-0.986,6.181c0,4.996,1.315,9.072,3.616,11.899l3.287-1.446V20.117z"/>
			<path d="M191.566,52.402h-0.197l-4.602-4.274c-1.315-1.184-1.841-1.577-2.367-1.577c-0.657,0-1.249,0.328-1.841,0.788
				l-0.263-0.395l3.878-2.826V27.616c0-1.709-2.301-3.418-2.893-3.418c-0.461,0-0.986,0.197-2.038,0.921l-0.263-0.396l7.823-5.324
				h0.197c2.235,1.644,3.814,2.957,5.194,5.522l1.644-1.184l0.263,0.394l-2.038,1.577v18.869c0,1.184,1.973,3.09,2.696,3.09
				c0.592,0,1.052-0.196,2.038-0.986l0.263,0.395L191.566,52.402z M188.936,16.111h-0.197l-4.996-5.391v-0.197l5.851-4.733h0.197
				l4.997,5.392v0.197L188.936,16.111z"/>
			<path d="M235.35,52.402h-0.197l-6.509-5.72c0.592-0.263,1.907-0.92,1.907-2.63V28.669l-4.602-4.075l-1.578,1.116v18.935
				c0,1.709,1.513,2.367,2.105,2.63l-5.852,5.128l-6.049-5.128c0.592-0.263,1.906-0.921,1.906-2.63V28.669l-4.602-4.075
				l-1.578,1.116v18.935c0,1.709,1.512,2.367,2.104,2.63l-5.851,5.128l-6.18-5.128c0.592-0.263,2.038-0.921,2.038-2.63V27.289
				c0-1.316-2.169-3.091-2.761-3.091c-0.46,0-0.986,0.197-2.038,0.921l-0.263-0.396l7.823-5.324h0.197
				c2.235,1.644,3.55,3.155,4.931,5.72l7.43-5.72l6.574,5.72l7.494-5.72l6.51,5.851l1.84-1.38l0.264,0.394l-2.039,1.579v18.736
				c0,1.774,1.973,3.156,2.499,3.156c0.394,0,1.184-0.263,2.169-1.053l0.264,0.395L235.35,52.402z"/>
			<path d="M254.213,52.337h-0.197l-9.664-6.838V26.763c6.312-2.433,9.204-4.208,13.74-7.363h0.198l7.1,9.007v0.131l-13.149,8.941
				v3.682c2.236,3.156,5.983,4.8,6.97,4.8c1.184,0,3.551-1.973,4.865-3.09l1.446-1.249l0.328,0.394L254.213,52.337z M252.241,24.198
				v12.689l6.443-4.472L252.241,24.198z"/>
			<path d="M277.156,52.402h-0.197c-0.92-0.921-2.893-2.367-5.128-2.367c-2.366,0-3.024,1.514-3.024,2.435
				c0,1.248,0.526,1.642,1.118,2.169l-0.198,0.328c-2.366-0.921-3.746-3.025-3.746-5.457c0-2.695,0.985-5.588,5.653-9.729
				l-4.733-3.748v-9.27c5.522-2.367,8.152-3.879,12.359-7.363h0.197c1.053,1.118,2.498,2.564,4.734,2.564
				c2.169,0,3.55-1.25,4.076-2.696h0.197c0.064,0.657,0.131,1.38,0.131,1.775c0,2.827-1.314,6.64-4.996,9.729l5.522,4.208v9.993
				C282.81,47.406,281.232,48.458,277.156,52.402z M281.298,38.399l-3.353-2.828c-4.799,2.696-8.811,7.102-9.533,8.942l0.132,0.131
				c0.591-0.328,2.038-1.184,4.997-1.184c3.55,0,6.508,2.367,7.758,3.945V38.399z M285.9,26.894
				c-1.512,0.658-2.235,1.118-4.076,1.118c-3.484,0-6.114-2.433-7.101-3.813v8.48l2.959,2.5c2.827-1.711,7.231-5.787,8.283-8.152
				L285.9,26.894z"/>
		</g>
		<path d="M161.847,92.327c0,5.451-2.926,11.533-11.589,11.533c-5.737,0-9.811-2.928-10.843-8.722l4.819-0.976
			c0.631,3.213,2.696,5.221,6.081,5.221c5.508,0,6.713-4.303,6.713-8.721V62.206h4.819V92.327z"/>
		<path d="M166.315,82.517c0-12.277,8.893-21.343,21.227-21.343c12.335,0,21.229,9.066,21.229,21.343
			c0,12.277-8.894,21.344-21.229,21.344C175.208,103.86,166.315,94.794,166.315,82.517z M203.607,82.517
			c0-9.352-6.54-16.867-16.064-16.867c-9.523,0-16.064,7.516-16.064,16.867c0,9.352,6.541,16.867,16.064,16.867
			C197.067,99.384,203.607,91.868,203.607,82.517z"/>
		<path d="M243.875,87.336c0,8.835-4.131,16.524-15.318,16.524s-15.318-7.689-15.318-16.524v-25.13h4.82v24.441
			c0,6.541,2.408,12.736,10.498,12.736c8.09,0,10.5-6.195,10.5-12.736V62.206h4.818V87.336z"/>
		<path d="M250.594,62.206h10.384c7.86,0,16.18,1.148,16.18,11.188c0,5.91-3.844,9.754-10.155,10.729l11.532,18.704h-5.91
			l-11.016-18.245h-6.196v18.245h-4.818V62.206z M255.412,80.106h4.304c5.336,0,12.277,0,12.277-6.713
			c0-5.852-5.105-6.712-9.81-6.712h-6.771V80.106z"/>
		<path d="M284.093,62.206h6.082l23.523,33.736h0.114V62.206h4.819v40.621h-6.082l-23.522-33.736h-0.114v33.736h-4.82V62.206z"/>
		<path d="M325.486,62.206h25.531v4.476h-20.711v12.737h19.334v4.475h-19.334v14.458h21.744v4.476h-26.565V62.206z"/>
		<path d="M370.236,85.327l-15.146-23.121h6.139l11.418,18.359l11.762-18.359h5.795l-15.146,23.121v17.5h-4.82V85.327z"/>
		<path d="M411.915,69.378c-1.607-2.582-4.475-3.729-7.401-3.729c-4.245,0-8.663,2.008-8.663,6.826c0,3.73,2.066,5.395,8.549,7.459
			c6.31,2.008,12.163,4.074,12.163,12.049c0,8.09-6.942,11.877-14.286,11.877c-4.705,0-9.754-1.551-12.508-5.623l4.131-3.385
			c1.722,2.982,5.164,4.531,8.664,4.531c4.131,0,8.835-2.409,8.835-7.057c0-4.991-3.385-5.852-10.614-8.262
			c-5.736-1.893-10.098-4.418-10.098-11.188c0-7.803,6.713-11.704,13.827-11.704c4.532,0,8.377,1.263,11.36,4.763L411.915,69.378z"
			/>
	</g>
	<g>
		<path style="fill:#0069AA;" d="M145.61,130.307h7.967v1.388h-9.48v-14.882h9.228v1.387h-7.715v5.065h7.211v1.389h-7.211V130.307z"
			/>
		<path style="fill:#0069AA;" d="M161.729,122.761l4.162-5.948h1.892l-5.045,7.062l5.465,7.819h-1.997l-4.54-6.747l-4.562,6.747
			h-1.892l5.444-7.819l-5.024-7.062h2.038L161.729,122.761z"/>
		<path style="fill:#0069AA;" d="M169.629,116.812h4.33c3.027,0,4.898,1.303,4.898,3.973c0,2.67-1.871,3.994-4.898,3.994h-2.817
			v6.915h-1.513V116.812z M171.142,123.392h2.438c2.711,0,3.637-1.178,3.637-2.606c0-1.43-0.925-2.586-3.637-2.586h-2.438V123.392z"
			/>
		<path style="fill:#0069AA;" d="M182.49,130.307h7.967v1.388h-9.48v-14.882h9.228v1.387h-7.714v5.065h7.21v1.389h-7.21V130.307z"/>
		<path style="fill:#0069AA;" d="M194.657,131.694h-1.513v-14.882h4.583c3.027,0,4.898,1.303,4.898,3.973
			c0,2.06-1.367,3.637-3.805,3.847l4.289,7.062h-1.85l-4.078-6.915h-2.522V131.694z M194.657,123.392h2.691
			c2.712,0,3.636-1.178,3.636-2.606c0-1.43-0.924-2.586-3.636-2.586h-2.691V123.392z"/>
		<path style="fill:#0069AA;" d="M207.244,131.694h-1.513v-14.882h1.513V131.694z"/>
		<path style="fill:#0069AA;" d="M212.497,130.307h7.968v1.388h-9.482v-14.882h9.228v1.387h-7.714v5.065h7.21v1.389h-7.21V130.307z"
			/>
		<path style="fill:#0069AA;" d="M233.914,129.424h0.041v-12.611h1.514v14.882h-1.891l-8.871-12.738h-0.043v12.738h-1.514v-14.882
			h1.893L233.914,129.424z"/>
		<path style="fill:#0069AA;" d="M251.041,129.34c-0.988,1.535-3.049,2.733-5.508,2.733c-4.436,0-7.757-3.301-7.757-7.819
			c0-4.52,3.321-7.82,7.757-7.82c1.85,0,3.847,0.694,5.15,2.354l-1.324,0.987c-0.59-0.967-2.25-1.954-3.826-1.954
			c-3.826,0-6.117,3.006-6.117,6.433c0,3.426,2.291,6.432,6.117,6.432c1.555,0,3.152-0.504,4.267-2.228L251.041,129.34z"/>
		<path style="fill:#0069AA;" d="M254.799,130.307h7.967v1.388h-9.48v-14.882h9.227v1.387h-7.714v5.065h7.21v1.389h-7.21V130.307z"
			/>
		<path style="fill:#0069AA;" d="M266.357,131.821c-0.673,0-1.136-0.547-1.136-1.136c0-0.588,0.463-1.135,1.136-1.135
			c0.672,0,1.135,0.547,1.135,1.135C267.492,131.274,267.029,131.821,266.357,131.821z"/>
		<path style="fill:#0069AA;" d="M277.221,130.307h6.937v1.388h-8.449v-14.882h1.513V130.307z"/>
		<path style="fill:#0069AA;" d="M287.644,130.307h7.967v1.388h-9.48v-14.882h9.229v1.387h-7.715v5.065h7.211v1.389h-7.211V130.307z
			"/>
		<path style="fill:#0069AA;" d="M298.466,131.694H296.7l6.475-14.882h1.471l6.475,14.882h-1.766l-1.641-3.909h-7.609
			L298.466,131.694z M300.673,126.397h6.453l-3.217-7.82L300.673,126.397z"/>
		<path style="fill:#0069AA;" d="M314.353,131.694h-1.514v-14.882h4.582c3.027,0,4.898,1.303,4.898,3.973
			c0,2.06-1.367,3.637-3.805,3.847l4.288,7.062h-1.851l-4.077-6.915h-2.522V131.694z M314.353,123.392h2.69
			c2.712,0,3.637-1.178,3.637-2.606c0-1.43-0.925-2.586-3.637-2.586h-2.69V123.392z"/>
		<path style="fill:#0069AA;" d="M335.769,129.424h0.042v-12.611h1.514v14.882h-1.892l-8.871-12.738h-0.042v12.738h-1.514v-14.882
			h1.892L335.769,129.424z"/>
		<path style="fill:#0069AA;" d="M341.124,131.821c-0.672,0-1.135-0.547-1.135-1.136c0-0.588,0.463-1.135,1.135-1.135
			c0.673,0,1.136,0.547,1.136,1.135C342.26,131.274,341.797,131.821,341.124,131.821z"/>
		<path style="fill:#0069AA;" d="M351.99,130.307h7.967v1.388h-9.48v-14.882h9.229v1.387h-7.715v5.065h7.209v1.389h-7.209V130.307z"
			/>
		<path style="fill:#0069AA;" d="M373.406,129.424h0.041v-12.611h1.514v14.882h-1.891l-8.871-12.738h-0.043v12.738h-1.514v-14.882
			h1.892L373.406,129.424z"/>
		<path style="fill:#0069AA;" d="M378.508,128.646c0.273,1.24,1.03,2.039,2.354,2.039c2.207,0,2.627-1.87,2.627-3.7v-10.173h1.514
			v10.804c0,1.998-0.988,4.457-4.183,4.457c-2.039,0-3.511-1.072-3.847-3.111L378.508,128.646z"/>
		<path style="fill:#0069AA;" d="M394.86,132.073c-4.436,0-7.757-3.301-7.757-7.819c0-4.52,3.321-7.82,7.757-7.82
			c4.436,0,7.757,3.301,7.757,7.82C402.617,128.773,399.295,132.073,394.86,132.073z M394.86,117.821
			c-3.825,0-6.117,3.006-6.117,6.433c0,3.426,2.292,6.432,6.117,6.432c3.825,0,6.116-3.006,6.116-6.432
			C400.976,120.827,398.685,117.821,394.86,117.821z"/>
		<path style="fill:#0069AA;" d="M409.275,131.694h-1.514v-6.411l-5.57-8.471h1.892l4.435,7.021l4.436-7.021h1.892l-5.57,8.471
			V131.694z"/>
		<path style="fill:#0069AA;" d="M412.972,131.821c-0.673,0-1.135-0.547-1.135-1.136c0-0.588,0.462-1.135,1.135-1.135
			c0.672,0,1.135,0.547,1.135,1.135C414.107,131.274,413.644,131.821,412.972,131.821z"/>
	</g>
	<g>
		<path d="M105.945,70.232c0,0,11.021-5.072,6.655-13.755c-1.545-3.071-5.877-4.909-5.877-4.909s0.876,2.523,1.496,5.719
			C108.935,60.985,110.112,65.901,105.945,70.232z"/>
		<path d="M14.797,71.559c0,0-11.146,5.639-7.285,14.102c1.357,2.977,6.234,4.188,6.234,4.188s-1.162-2.43-1.795-5.466
			C11.246,81.013,10.831,75.682,14.797,71.559z"/>
		<path style="fill:#0069AA;" d="M106.794,51.587c0,0,0.01,0.013,0.015,0.019c0.59,0.265,4.369,2.043,5.791,4.872
			c4.015,7.986-4.979,12.915-6.449,13.655c-0.11,0.08-0.209,0.161-0.323,0.24c-3.212,1.807-6.766,2.078-10.949,1.067
			c-0.124-0.02-15.226-4.631-30.556-8.972c-15.427-4.406-30.705-8.773-30.705-8.773c-3.723-0.777-7.759-1.481-10.171-1.481
			c-3.957,0-8.252-0.059-14.729,3.974c-7.274,4.526-12.094,15.525-5.819,26.06c3.446,5.586,6.887,7.029,10.845,7.602
			c0,0-0.007-0.006-0.009-0.007c-0.314-0.082-4.893-1.308-6.204-4.182c-3.861-8.463,7.285-14.102,7.285-14.102
			c3.787-2.459,6.883-2.007,10.947-1.07c0.126,0.022,15.226,4.632,30.557,8.974c15.342,4.378,15.335,4.376,30.705,8.773
			c3.725,0.777,7.756,1.482,10.171,1.482c3.958,0,8.255,0.052,14.731-3.979C128.929,75.157,117.079,53.825,106.794,51.587z"/>
		<linearGradient id="SVGID_1_" gradientUnits="userSpaceOnUse" x1="59.106" y1="78.3816" x2="50.1928" y2="116.989">
			<stop  offset="0" style="stop-color:#6A737B"/>
			<stop  offset="0.1366" style="stop-color:#889299"/>
			<stop  offset="0.4233" style="stop-color:#CFD4D8"/>
		</linearGradient>
		<path style="fill:url(#SVGID_1_);" d="M100.526,89.641c-5.233,9.691-13.729,17.37-24.023,21.534
			c3.615-5.12,6.536-11.086,8.662-17.617c3.4-1.115,6.638-2.452,9.689-3.984c-1.599-0.172-3.476-0.478-5.386-0.84
			c-1.064,0.444-2.141,0.875-3.244,1.273c0.167-0.611,0.319-1.231,0.473-1.849c-1.034-0.297-1.995-0.572-2.898-0.83
			c-0.32,1.292-0.658,2.573-1.038,3.826c-6.977,2.128-14.594,3.333-22.495,3.501V80.603c-0.927-0.264-1.928-0.551-3-0.856v14.919
			c-7.872-0.108-15.457-1.25-22.41-3.319c-1.837-5.981-2.992-12.436-3.402-19.135c-1.187-0.356-2.222-0.667-3.073-0.923
			c0.317,6.583,1.342,12.959,3.006,18.932c-6.966-2.459-13.189-5.887-18.273-10.157c-0.376-1.334-0.692-2.694-0.954-4.071
			c-0.991,3.043-0.658,6.15-0.189,8.392c0.634,3.036,1.795,5.466,1.795,5.466s-0.023-0.005-0.061-0.016
			c8.312,16.473,25.383,27.803,45.059,27.803c19.968,0,37.247-11.667,45.414-28.536C102.877,89.409,101.671,89.564,100.526,89.641z
			 M14.882,85.193c5.118,3.59,11.062,6.478,17.575,8.566c2.14,6.477,5.07,12.384,8.679,17.459
			C29.263,106.448,19.751,97.016,14.882,85.193z M57.266,114.591c-3.799-0.119-7.484-0.684-11.01-1.648
			c-4.284-5.035-7.735-11.219-10.248-18.141c6.673,1.792,13.849,2.777,21.258,2.873V114.591z M60.266,114.591v-16.92
			c7.437-0.147,14.647-1.195,21.351-3.047c-2.495,6.974-5.941,13.205-10.228,18.285C67.83,113.895,64.106,114.47,60.266,114.591z"/>
		<path style="fill:#CFD4D8;" d="M14.435,53.388c4.778-3.763,10.459-6.827,16.771-9.088c-0.754,2.782-1.366,5.651-1.835,8.589
			c0.975,0.168,1.976,0.357,2.973,0.557c0.562-3.543,1.332-6.987,2.318-10.283c7.004-2.116,14.657-3.292,22.604-3.409v20.715
			c0.991,0.283,1.993,0.571,3,0.858v-21.57c7.932,0.156,15.578,1.361,22.581,3.493c2.253,7.511,3.442,15.758,3.393,24.314
			c-0.003,0.434-0.023,0.864-0.032,1.298c1.08,0.32,2.082,0.62,2.992,0.893c0.018-0.58,0.04-1.159,0.046-1.743
			c0-0.146,0.003-0.286,0.004-0.428c0.048-8.097-0.976-15.94-2.943-23.189c6.94,2.498,13.139,5.939,18.195,10.213
			c1.104,4.011,1.707,8.229,1.707,12.586c0,0.962-0.034,1.919-0.091,2.868c2.458-2.654,2.962-5.517,2.815-8.179
			c-2.662-25.339-24.145-45.155-50.169-45.155c-23.82,0-43.826,16.61-49.084,38.857C11.412,54.584,12.984,53.882,14.435,53.388z
			 M102.772,49.492c-5.092-3.601-11.019-6.518-17.51-8.644c-2.118-6.544-5.048-12.505-8.679-17.628
			C88.471,28.057,97.968,37.583,102.772,49.492z M60.266,19.772c3.859,0.12,7.604,0.703,11.18,1.697
			c4.319,5.081,7.779,11.322,10.27,18.314c-6.735-1.858-13.978-2.906-21.449-3.043V19.772z M57.266,19.772v16.969
			c-7.489,0.106-14.742,1.116-21.473,2.959c2.465-6.935,5.887-13.127,10.151-18.191C49.563,20.49,53.355,19.893,57.266,19.772z
			 M40.81,23.274c-3.579,5.092-6.468,11.004-8.56,17.481c-6.466,2.108-12.362,5.012-17.436,8.603
			C19.617,37.558,29.03,28.112,40.81,23.274z"/>
	</g>
</g>
</svg>
