<?xml version="1.0" encoding="iso-8859-1"?>
<!-- Generator: Adobe Illustrator 19.1.0, SVG Export Plug-In . SVG Version: 6.00 Build 0)  -->
<svg version="1.1" id="Layer_1" xmlns="http://www.w3.org/2000/svg" xmlns:xlink="http://www.w3.org/1999/xlink" x="0px" y="0px"
	 viewBox="0 0 16 16" style="enable-background:new 0 0 16 16;" xml:space="preserve">
<g>
	<path style="fill:#FFFFFF;" d="M13.88,0H2.12C0.95,0,0,0.95,0,2.12v11.76C0,15.05,0.95,16,2.12,16h11.76
		c1.17,0,2.12-0.95,2.12-2.12V2.12C16,0.95,15.05,0,13.88,0z M9.77,4.13h3.69v0.86H9.77V4.13z M7.75,10.93
		c-0.16,0.27-0.36,0.49-0.6,0.67c-0.27,0.21-0.59,0.35-0.96,0.43c-0.37,0.07-0.77,0.11-1.2,0.11H1.16V3.65h4.11
		c1.03,0.01,1.77,0.31,2.2,0.9c0.26,0.36,0.39,0.79,0.39,1.3c0,0.52-0.13,0.93-0.4,1.25C7.32,7.27,7.1,7.44,6.82,7.58
		C7.25,7.74,7.58,7.99,7.8,8.33c0.22,0.34,0.33,0.76,0.33,1.25C8.13,10.08,8,10.53,7.75,10.93z M10.92,10.79
		c0.25,0.15,0.55,0.23,0.91,0.23c0.37,0,0.67-0.09,0.91-0.29c0.12-0.1,0.24-0.24,0.34-0.43h1.67c-0.04,0.37-0.24,0.75-0.61,1.14
		c-0.56,0.61-1.35,0.91-2.36,0.91c-0.84,0-1.57-0.25-2.21-0.77c-0.64-0.51-0.96-1.35-0.96-2.51c0-1.09,0.29-1.93,0.86-2.51
		c0.58-0.58,1.33-0.87,2.25-0.87c0.55,0,1.04,0.1,1.48,0.3c0.44,0.19,0.8,0.5,1.08,0.93c0.26,0.37,0.43,0.8,0.5,1.29
		c0.05,0.29,0.07,0.71,0.06,1.25h-4.58C10.29,10.09,10.51,10.53,10.92,10.79z"/>
	<path style="fill:#FFFFFF;" d="M13.13,8.38H10.3c0.06-0.41,0.21-0.74,0.44-0.98c0.23-0.23,0.56-0.35,0.98-0.35
		c0.39,0,0.71,0.11,0.98,0.33C12.96,7.61,13.1,7.94,13.13,8.38z"/>
	<path style="fill:#FFFFFF;" d="M6.16,6.04c0,0.35-0.11,0.6-0.34,0.74s-0.53,0.21-0.9,0.21H2.85V5.12H4.7
		c0.41,0,0.74,0.04,1.01,0.13C6.01,5.38,6.16,5.64,6.16,6.04z"/>
	<path style="fill:#FFFFFF;" d="M6.34,9.45c0,0.53-0.19,0.88-0.56,1.07c-0.21,0.1-0.49,0.15-0.86,0.15H2.85V8.4h2.1
		c0.36,0,0.64,0.05,0.84,0.14C6.16,8.71,6.34,9.01,6.34,9.45z"/>
</g>
</svg>
