<?xml version="1.0" encoding="iso-8859-1"?>
<!-- Generator: Adobe Illustrator 19.0.1, SVG Export Plug-In . SVG Version: 6.00 Build 0)  -->
<svg version="1.1" id="Layer_1" xmlns="http://www.w3.org/2000/svg" xmlns:xlink="http://www.w3.org/1999/xlink" x="0px" y="0px"
	 viewBox="0 0 16 16" style="enable-background:new 0 0 16 16;" xml:space="preserve">
<g>
	<path style="fill:#FFFFFF;" d="M13.96,0H2.04C0.91,0,0,0.91,0,2.04v11.92C0,15.09,0.91,16,2.04,16h11.92
		c1.13,0,2.04-0.91,2.04-2.04V2.04C16,0.91,15.09,0,13.96,0z M8.88,10.53c-0.71,0-1.37-0.38-1.6-0.81c0,0-0.38,1.51-0.46,1.8
		c-0.28,1.02-1.11,2.05-1.18,2.14C5.6,13.71,5.5,13.7,5.49,13.62c-0.02-0.13-0.23-1.43,0.02-2.49c0.12-0.53,0.84-3.56,0.84-3.56
		S6.14,7.15,6.14,6.54c0-0.97,0.56-1.69,1.26-1.69c0.59,0,0.88,0.44,0.88,0.98c0,0.59-0.38,1.49-0.58,2.32
		C7.54,8.84,8.05,9.41,8.73,9.41c1.24,0,2.08-1.6,2.08-3.48c0-1.43-0.97-2.51-2.72-2.51c-1.99,0-3.22,1.48-3.22,3.14
		c0,0.57,0.17,0.97,0.43,1.28c0.12,0.14,0.14,0.2,0.09,0.36c-0.03,0.12-0.1,0.41-0.13,0.53C5.22,8.89,5.08,8.95,4.93,8.89
		C4.02,8.52,3.6,7.52,3.6,6.39c0-1.85,1.56-4.08,4.67-4.08c2.49,0,4.14,1.81,4.14,3.74C12.41,8.62,10.98,10.53,8.88,10.53z"/>
</g>
</svg>
