<?xml version="1.0" encoding="iso-8859-1"?>
<!-- Generator: Adobe Illustrator 18.1.1, SVG Export Plug-In . SVG Version: 6.00 Build 0)  -->
<svg version="1.1" id="Layer_1" xmlns="http://www.w3.org/2000/svg" xmlns:xlink="http://www.w3.org/1999/xlink" x="0px" y="0px"
	 viewBox="0 0 16 16" style="enable-background:new 0 0 16 16;" xml:space="preserve">
<path style="fill:#FFFFFF;" d="M10.246,8.171H8.851v5.276H6.638V8.171H5.617V6.469h1.067c0-0.171,0-0.28,0.001-0.39
	C6.686,5.65,6.675,5.2,6.693,4.772C6.731,3.817,7.254,3.168,8.2,3.044c0.714-0.093,1.502-0.083,2.183-0.114v1.848
	c-0.17,0-0.303-0.001-0.458,0C9.668,4.781,9.412,4.776,9.156,4.794C8.902,4.812,8.797,4.878,8.79,5.13
	C8.779,5.525,8.788,5.958,8.788,6.298h1.613C10.349,6.979,10.298,7.49,10.246,8.171 M16,2.043C16,0.915,15.086,0,13.957,0H2.043
	C0.914,0,0,0.915,0,2.043v11.915C0,15.086,0.914,16,2.043,16h11.914C15.086,16,16,15.086,16,13.958V2.043z"/>
</svg>
